<?xml version="1.0" standalone="no"?>
<!DOCTYPE svg PUBLIC "-//W3C//DTD SVG 1.1//EN" "http://www.w3.org/Graphics/SVG/1.1/DTD/svg11.dtd" >
<svg xmlns="http://www.w3.org/2000/svg">
<metadata></metadata>
<defs>
<font id="korbbold" horiz-adv-x="524" >
<font-face units-per-em="1000" ascent="760" descent="-240" />
<missing-glyph horiz-adv-x="220" />
<glyph unicode="&#xfb01;" horiz-adv-x="553" d="M221 389v-335q0 -23 -17 -39.5t-43 -16.5t-43 16t-17 40v335h-59q-15 0 -25.5 13t-10.5 33t10.5 33.5t24.5 15.5l59 9h1v37q0 84 63 136.5t134 52.5q35 0 79 -10q49 -12 49 -56q0 -24 -13 -38.5t-35 -14.5q-5 0 -35 5t-45 5q-28 0 -52.5 -23t-24.5 -57v-35h206 q26 0 43 -16.5t17 -39.5v-385q0 -23 -17 -39.5t-43 -16.5t-43 16t-17 40v335h-146z" />
<glyph unicode="&#xfb02;" horiz-adv-x="571" d="M505 658v-604q0 -23 -17 -39.5t-43 -16.5t-43 16t-17 40v555h-3l-86 1q-30 0 -52.5 -20t-22.5 -54v-41h74q19 0 32 -15t13 -39q0 -22 -13 -37t-32 -15h-74v-335q0 -23 -17 -39.5t-43 -16.5t-43 16t-17 40v335h-59q-15 0 -25.5 13t-10.5 33t10.5 33.5t24.5 15.5l59 9h1v43 q0 84 62 133.5t133 49.5q129 0 151 -5q25 -1 41.5 -17.5t16.5 -38.5z" />
<glyph horiz-adv-x="1000" />
<glyph horiz-adv-x="1000" />
<glyph unicode="&#xd;" horiz-adv-x="1000" />
<glyph unicode=" "  horiz-adv-x="220" />
<glyph unicode="&#x09;" horiz-adv-x="220" />
<glyph unicode="&#xa0;" horiz-adv-x="220" />
<glyph unicode="!" horiz-adv-x="262" d="M127 194q-17 0 -30 11t-15 27q-17 149 -18 230v163q0 25 18 41.5t44 16.5q25 0 43.5 -17.5t18.5 -40.5v-162q-1 -101 -16 -231q-2 -17 -14.5 -27.5t-30.5 -10.5zM61 57q0 28 19 46.5t47 18.5q27 0 46 -18.5t19 -46.5q0 -27 -19 -46t-46 -19q-28 0 -47 18.5t-19 46.5z" />
<glyph unicode="&#x22;" horiz-adv-x="356" d="M258 720q25 0 44 -17t17 -38l-14 -154q-2 -14 -16 -25.5t-31 -11.5t-31 11.5t-16 25.5l-14 154q-2 22 17.5 38.5t43.5 16.5zM98 720q25 0 44 -17t17 -38l-14 -154q-2 -14 -16 -25.5t-31 -11.5t-31 11.5t-16 25.5l-14 154q-2 22 17.5 38.5t43.5 16.5z" />
<glyph unicode="#" d="M253 50l24 138h-83l-26 -152q-2 -18 -17.5 -29.5t-37.5 -11.5q-23 0 -36.5 12t-13.5 31q0 8 1 12l24 138h-32q-21 0 -33.5 13.5t-12.5 33.5t12.5 33.5t33.5 13.5h48l22 124h-40q-21 0 -33.5 13t-12.5 33t12.5 33.5t33.5 13.5h57l25 143q4 19 18.5 30.5t35.5 11.5 q23 0 36.5 -12t13.5 -31q0 -8 -1 -12l-23 -130h83l25 143q4 19 18.5 30.5t35.5 11.5q23 0 36.5 -12t13.5 -31q0 -8 -1 -12l-23 -130h32q21 0 33.5 -13.5t12.5 -33.5t-12.5 -33t-33.5 -13h-48l-21 -124h38q21 0 33.5 -13.5t12.5 -33.5t-12.5 -33.5t-33.5 -13.5h-55l-26 -152 q-3 -18 -18.5 -29.5t-35.5 -11.5q-23 0 -36.5 12t-13.5 31q0 8 1 12zM232 406l-21 -124h82l22 124h-83z" />
<glyph unicode="$" d="M271 550q-31 0 -54 -22.5t-23 -55.5q0 -27 28 -45t81 -37q75 -26 112 -67t37 -119q0 -64 -37 -113t-98 -68v-63q0 -20 -15 -34.5t-37 -14.5t-37.5 14.5t-15.5 34.5v57q-56 10 -97 34q-40 22 -40 60q0 23 15.5 38.5t38.5 15.5q17 0 43 -13q48 -24 79 -24q36 0 59 22t23 54 q0 31 -24.5 51t-70.5 37q-79 29 -122.5 68t-43.5 111q0 65 40 115t101 68v60q0 20 15.5 34.5t37.5 14.5t37 -14.5t15 -34.5v-56q44 -9 88 -34q32 -20 32 -53q0 -21 -15 -38t-39 -17q-17 0 -45 14q-38 20 -68 20z" />
<glyph unicode="%" horiz-adv-x="694" d="M551 620l-331 -601q-14 -24 -39 -24q-19 0 -33.5 12.5t-14.5 30.5q0 11 5 21l330 602q14 24 40 24q19 0 33.5 -13t14.5 -31q0 -13 -5 -21zM658 215v-105q0 -47 -38 -82t-87 -35q-50 0 -88 34.5t-38 82.5v105q0 48 38 82.5t88 34.5q49 0 87 -35t38 -82zM495 215v-105 q0 -16 11.5 -26.5t26.5 -10.5t25.5 10.5t10.5 26.5v105q0 16 -10.5 26.5t-25.5 10.5t-26.5 -10.5t-11.5 -26.5zM287 571v-105q0 -47 -38 -82t-87 -35q-50 0 -88 34.5t-38 82.5v105q0 48 38 82.5t88 34.5q49 0 87 -35t38 -82zM124 571v-105q0 -16 11.5 -26.5t26.5 -10.5 t25.5 10.5t10.5 26.5v105q0 16 -10.5 26.5t-25.5 10.5t-26.5 -10.5t-11.5 -26.5z" />
<glyph unicode="&#x26;" horiz-adv-x="548" d="M329 665q30 -16 30 -51q0 -20 -13 -35.5t-34 -15.5q-17 0 -38 10q-20 9 -32 9q-23 0 -39.5 -19t-16.5 -44q0 -9 2 -18t8 -19t10 -17.5t14 -20t15 -18.5t18 -21t17 -20l119 -145q9 31 9 62q0 22 16 37t38 15q24 0 40.5 -15t16.5 -37q0 -80 -39 -160l48 -56q15 -17 15 -36 q0 -20 -15.5 -37t-37.5 -17q-26 0 -45 24l-29 34q-69 -62 -162 -62q-99 0 -156.5 57t-57.5 146q0 98 105 179q-61 78 -61 145q0 73 51 121t117 48q44 0 87 -23zM148 195q0 -39 26 -67t70 -28q51 0 90 39l-135 158q-51 -38 -51 -102z" />
<glyph unicode="'" horiz-adv-x="204" d="M102 720q25 0 44 -17t17 -38l-14 -154q-2 -14 -16 -25.5t-31 -11.5t-31 11.5t-16 25.5l-14 154q-2 22 17.5 38.5t43.5 16.5z" />
<glyph unicode="(" horiz-adv-x="259" d="M36 277q0 239 136 415q16 20 37 20q17 0 29.5 -12.5t12.5 -27.5q0 -12 -6 -22q-89 -151 -89 -373t89 -373q6 -10 6 -22q0 -15 -12.5 -27.5t-29.5 -12.5q-21 0 -37 20q-136 176 -136 415z" />
<glyph unicode=")" horiz-adv-x="259" d="M223 277q0 -239 -136 -415q-16 -20 -37 -20q-17 0 -29.5 12.5t-12.5 27.5q0 12 6 22q89 151 89 373t-89 373q-6 10 -6 22q0 15 12.5 27.5t29.5 12.5q21 0 37 -20q136 -176 136 -415z" />
<glyph unicode="*" horiz-adv-x="259" d="M38 593l47 22l-48 22q-17 7 -17 25q0 11 8.5 19.5t19.5 8.5q9 0 18 -7l44 -34l-9 58q-1 11 7 19.5t21 8.5t21.5 -8.5t6.5 -19.5l-8 -58l44 34q9 7 18 7q11 0 19.5 -8.5t8.5 -19.5q0 -18 -16 -25l-51 -22l50 -22q17 -8 17 -25q0 -11 -8.5 -19.5t-19.5 -8.5q-9 0 -18 7 l-44 34l8 -58q2 -11 -6.5 -19.5t-21.5 -8.5t-21 8.5t-7 19.5l9 58l-44 -34q-9 -7 -18 -7q-11 0 -19.5 8.5t-8.5 19.5q0 15 18 25z" />
<glyph unicode="+" d="M428 196h-111v-127q0 -20 -16.5 -34.5t-38.5 -14.5t-38.5 14.5t-16.5 34.5v127h-111q-21 0 -35.5 16t-14.5 38t14.5 38t35.5 16h111v126q0 20 16.5 35t38.5 15t38.5 -15t16.5 -35v-126h111q21 0 35.5 -16t14.5 -38t-14.5 -38t-35.5 -16z" />
<glyph unicode="," horiz-adv-x="204" d="M36 61q0 31 19.5 49t48.5 18q31 0 50 -20t19 -52q0 -63 -74 -141q-19 -19 -39 -19q-15 0 -25.5 10t-10.5 26q0 13 8 26q22 31 22 49q0 9 -9 26t-9 28z" />
<glyph unicode="-" horiz-adv-x="328" d="M250 196h-170q-21 0 -35.5 15.5t-14.5 38.5q0 24 14.5 39t35.5 15h170q22 0 36 -15t14 -39q0 -23 -14 -38.5t-36 -15.5z" />
<glyph unicode="." horiz-adv-x="204" d="M33 62q0 30 20 49t49 19q28 0 48.5 -19t20.5 -49t-20.5 -49t-48.5 -19q-29 0 -49 19t-20 49z" />
<glyph unicode="/" horiz-adv-x="328" d="M325 648l-210 -674q-12 -41 -57 -41q-21 0 -39.5 15t-18.5 35q0 13 3 22l210 674q12 41 56 41q21 0 40 -15t19 -35q0 -13 -3 -22z" />
<glyph unicode="0" horiz-adv-x="540" d="M482 484v-288q0 -84 -64 -144t-148 -60t-148 60t-64 144v288q0 84 64 144t148 60t148 -60t64 -144zM182 484v-288q0 -36 26.5 -63t61.5 -27t61.5 26.5t26.5 63.5v288q0 37 -26 63.5t-62 26.5t-62 -27t-26 -63z" />
<glyph unicode="1" horiz-adv-x="423" d="M201 520l-65 -41q-17 -12 -40 -12q-22 0 -37.5 15.5t-15.5 39.5q0 29 30 50l118 80q42 28 77 28q22 0 39.5 -16t17.5 -38v-572q0 -23 -18 -39.5t-44 -16.5t-44 16.5t-18 39.5v466z" />
<glyph unicode="2" horiz-adv-x="503" d="M239 688q90 0 150 -58t60 -137q0 -47 -20.5 -88t-64.5 -95l-165 -200h214q21 0 35 -16.5t14 -38.5q0 -24 -13.5 -39.5t-35.5 -15.5h-309q-24 0 -39 17.5t-15 41.5q0 44 34 85l173 219q51 66 61 92q7 19 7 38q0 33 -24.5 57t-60.5 24q-41 0 -87 -41q-24 -20 -49 -20 q-22 0 -37.5 16.5t-15.5 38.5q0 28 25 51q77 69 163 69z" />
<glyph unicode="3" horiz-adv-x="503" d="M234 292h-61q-23 0 -38 15t-15 37t15 38t38 16h61q34 0 58 23t24 56v18q0 31 -25 54.5t-57 23.5q-41 0 -82 -31q-25 -18 -48 -18q-22 0 -37.5 15.5t-15.5 37.5q0 30 24 49q72 61 159 61q83 0 144.5 -54t61.5 -138v-18q2 -96 -77 -132q79 -36 77 -132v-30 q0 -83 -61.5 -136.5t-144.5 -53.5q-91 0 -159 58q-24 19 -24 50q0 22 15.5 37.5t37.5 15.5q23 0 48 -18q38 -29 82 -29q32 0 57 22.5t25 53.5v30q0 33 -24 56t-58 23z" />
<glyph unicode="4" horiz-adv-x="519" d="M348 -4q-27 0 -43 16t-16 38v74h-204q-22 0 -36 17t-14 40q0 20 11 42l184 424q15 37 55 37q26 0 43 -16.5t17 -40.5q0 -7 -5 -22l-160 -371h109v112q0 23 17 38.5t43 15.5q25 0 42.5 -15.5t17.5 -38.5v-112h46q23 0 37 -16t14 -39t-14 -39t-37 -16h-46v-74 q0 -22 -16.5 -38t-44.5 -16z" />
<glyph unicode="5" horiz-adv-x="510" d="M335 185v59q0 33 -24 58t-60 25q-21 0 -75 -21q-37 -14 -53 -14q-22 0 -38 15.5t-15 37.5l20 283q2 22 18 37t39 15h242q21 0 35.5 -16t14.5 -38t-14 -38t-36 -16h-182l-11 -149q0 -5 4 -8.5t9 -1.5q48 24 76 24q79 0 126.5 -55t47.5 -138v-59q0 -81 -59.5 -137 t-149.5 -56q-88 0 -158 56q-26 21 -26 53q0 23 17 39t38 16t45 -17q46 -33 84 -33q36 0 60.5 22.5t24.5 56.5z" />
<glyph unicode="6" horiz-adv-x="523" d="M276 573q-33 0 -61.5 -28t-28.5 -66v-74q0 -11 9 -11q1 0 16 9q41 31 89 31q78 0 129 -53.5t51 -131.5v-60q0 -78 -62 -137.5t-147 -59.5t-147 59.5t-62 137.5v290q0 87 65.5 148t148.5 61q74 0 141 -43q32 -21 32 -55q0 -21 -15 -37t-37 -16q-20 0 -54 19q-31 17 -67 17 zM356 189v52q0 34 -25.5 58.5t-59.5 24.5t-59.5 -24.5t-25.5 -58.5v-52q0 -35 25.5 -60t59.5 -25t59.5 25t25.5 60z" />
<glyph unicode="7" horiz-adv-x="470" d="M95 71l208 497h-234q-20 0 -34.5 16.5t-14.5 39.5t14.5 39.5t34.5 16.5h323q23 0 38 -15.5t15 -37.5q0 -20 -7 -34l-231 -562q-16 -35 -52 -35q-25 0 -44 16t-19 38q0 14 3 21z" />
<glyph unicode="8" horiz-adv-x="525" d="M458 503v-30q0 -35 -20.5 -71.5t-49.5 -52.5q33 -15 58 -53.5t25 -81.5v-30q0 -80 -61 -136t-147 -56q-87 0 -148.5 56t-61.5 136v30q0 42 25 79t59 55q-30 16 -50.5 52.5t-20.5 72.5v30q0 73 56.5 128.5t140.5 55.5t139.5 -55.5t55.5 -128.5zM177 214v-30 q0 -32 25.5 -56t60.5 -24t60.5 24.5t25.5 55.5v30q0 32 -26 56t-60 24t-60 -24t-26 -56zM186 503v-30q0 -28 22.5 -49.5t54.5 -21.5t54.5 21.5t22.5 49.5v30q0 29 -22.5 50.5t-54.5 21.5t-54.5 -21.5t-22.5 -50.5z" />
<glyph unicode="9" horiz-adv-x="523" d="M247 107q33 0 61.5 28t28.5 66v71q0 11 -9 11q-1 0 -16 -9q-40 -30 -87 -30q-78 0 -130 52.5t-52 130.5v64q0 78 62 137.5t147 59.5t147 -59.5t62 -137.5v-290q0 -87 -65.5 -148t-148.5 -61q-77 0 -141 41q-32 21 -32 56q0 21 15 37.5t37 16.5q20 0 54 -19q31 -17 67 -17 zM167 491v-56q0 -34 25.5 -57.5t59.5 -23.5t59.5 23.5t25.5 57.5v56q0 35 -25.5 60t-59.5 25t-59.5 -25t-25.5 -60z" />
<glyph unicode=":" horiz-adv-x="204" d="M33 434q0 30 20 49t49 19q28 0 48.5 -19t20.5 -49t-20.5 -49t-48.5 -19q-29 0 -49 19t-20 49zM33 63q0 30 20 49t49 19q28 0 48.5 -19t20.5 -49t-20.5 -49t-48.5 -19q-29 0 -49 19t-20 49z" />
<glyph unicode=";" horiz-adv-x="204" d="M33 61q0 31 19.5 49t48.5 18q31 0 50 -20t19 -52q0 -63 -74 -141q-19 -19 -39 -19q-15 0 -25.5 10t-10.5 26q0 13 8 26q22 31 22 49q0 9 -9 26t-9 28zM33 434q0 30 20 49t49 19q28 0 48.5 -19t20.5 -49t-20.5 -49t-48.5 -19q-29 0 -49 19t-20 49z" />
<glyph unicode="&#x3c;" d="M375 35l-277 153q-39 20 -39 63q0 42 39 62l277 154q18 10 34 10q24 0 39.5 -16t15.5 -39q0 -31 -34 -49l-229 -122l229 -122q34 -18 34 -49q0 -23 -15.5 -39t-39.5 -16q-16 0 -34 10z" />
<glyph unicode="=" d="M429 297h-334q-21 0 -35.5 16t-14.5 38t14.5 38t35.5 16h334q21 0 35.5 -16t14.5 -38t-14.5 -38t-35.5 -16zM429 100h-334q-21 0 -35.5 16t-14.5 38t14.5 38t35.5 16h334q21 0 35.5 -16t14.5 -38t-14.5 -38t-35.5 -16z" />
<glyph unicode="&#x3e;" d="M425 188l-277 -153q-18 -10 -34 -10q-24 0 -39.5 16t-15.5 39q0 31 34 49l229 122l-229 122q-34 18 -34 49q0 23 15.5 39t39.5 16q16 0 34 -10l277 -154q39 -20 39 -62q0 -43 -39 -63z" />
<glyph unicode="?" horiz-adv-x="433" d="M136 247l-1 16q-2 42 12 71.5t36.5 46.5t45 31.5t38.5 35t16 48.5q0 35 -27.5 59t-62.5 24q-31 0 -73 -31q-23 -18 -43 -18t-35.5 16t-15.5 36q0 23 26 47q25 23 64 40.5t77 17.5q88 0 149 -54.5t61 -138.5q0 -42 -15.5 -73t-37.5 -48.5t-44.5 -32t-39 -33.5t-18.5 -44 l-1 -18q0 -21 -15.5 -35.5t-39.5 -14.5q-26 0 -41 14.5t-15 37.5zM123 62q0 30 20 49t49 19q28 0 48.5 -19t20.5 -49t-20.5 -49t-48.5 -19q-29 0 -49 19t-20 49z" />
<glyph unicode="@" horiz-adv-x="819" d="M353 -4q-58 0 -94.5 45t-28.5 109q1 10 6 56.5t9 70.5q10 69 59.5 113t112.5 44q21 0 47.5 -14t31.5 -14q11 0 30.5 12t32.5 12q16 0 26.5 -11t8.5 -29l-36 -262q-4 -24 4.5 -40t25.5 -16q41 0 69.5 66t28.5 177q0 115 -63 175.5t-165 60.5q-145 0 -235.5 -113.5 t-90.5 -272.5q0 -105 53 -177t167 -72q20 0 33.5 -15t13.5 -33q0 -21 -15 -35.5t-39 -14.5q-77 0 -138.5 29t-100.5 78.5t-59.5 111.5t-20.5 131q0 127 53.5 236t155 177t228.5 68q142 0 236 -89.5t93 -243.5q-1 -161 -60 -248t-153 -87q-53 0 -87 40q-14 14 -22 14 q-10 0 -39 -18q-34 -21 -78 -21zM457 150l15 127q4 26 -10.5 43.5t-40.5 17.5q-24 0 -45.5 -17.5t-25.5 -43.5l-15 -127q-3 -24 11.5 -41.5t38.5 -17.5q26 0 47.5 17.5t24.5 41.5z" />
<glyph unicode="A" horiz-adv-x="546" d="M273 682q30 0 52 -18.5t30 -45.5l168 -550q3 -12 3 -18q0 -25 -18.5 -39.5t-48.5 -14.5q-20 0 -35 12t-20 31l-35 125h-193l-34 -125q-5 -19 -20 -31t-35 -12q-30 0 -48.5 14.5t-18.5 39.5q0 6 3 18l168 550q8 27 30 45.5t52 18.5zM273 537l-23 -107l-44 -158h133 l-43 158z" />
<glyph unicode="B" horiz-adv-x="544" d="M74 56v568q0 25 16.5 40.5t41.5 15.5h142q98 0 152.5 -51.5t54.5 -140.5q0 -45 -24 -85t-53 -56q36 -16 67 -56t31 -92q0 -93 -60.5 -146t-165.5 -53h-144q-25 0 -41.5 15.5t-16.5 40.5zM380 199q0 93 -104 93h-78v-182h78q104 0 104 89zM359 488q0 38 -21.5 60t-63.5 22 h-76v-170h76q85 0 85 88z" />
<glyph unicode="C" horiz-adv-x="482" d="M184 466v-253q0 -48 30 -77.5t71 -29.5q28 0 75 27q24 13 41 13q24 0 39.5 -17.5t15.5 -41.5q0 -30 -32 -51q-69 -44 -139 -44q-90 0 -157.5 62t-67.5 159v253q0 97 67 159.5t158 62.5q69 0 138 -44q33 -21 33 -52q0 -23 -15 -40t-40 -17q-21 0 -46 16q-35 23 -70 23 q-41 0 -71 -30.5t-30 -77.5z" />
<glyph unicode="D" horiz-adv-x="573" d="M74 56v568q0 25 16.5 40.5t41.5 15.5h159q89 0 155.5 -59t66.5 -151v-260q0 -92 -66.5 -151t-155.5 -59h-159q-25 0 -41.5 15.5t-16.5 40.5zM198 112h93q40 0 69 29.5t29 68.5v260q0 39 -29 68.5t-69 29.5h-93v-456z" />
<glyph unicode="E" horiz-adv-x="490" d="M74 56v568q0 25 16 40.5t42 15.5h264q24 0 38 -16t14 -40t-14 -40t-38 -16h-198v-168h165q24 0 38 -16t14 -40t-14 -40t-38 -16h-165v-176h198q24 0 38 -15.5t14 -40.5t-14 -40.5t-38 -15.5h-264q-26 0 -42 15.5t-16 40.5z" />
<glyph unicode="F" horiz-adv-x="469" d="M74 624q0 25 16 40.5t42 15.5h265q24 0 38 -16t14 -40t-14 -40t-38 -16h-199v-179h172q23 0 37.5 -15.5t14.5 -39.5t-14.5 -40.5t-37.5 -16.5h-172v-221q0 -25 -17.5 -41.5t-44.5 -16.5t-44.5 16.5t-17.5 41.5v568z" />
<glyph unicode="G" horiz-adv-x="556" d="M382 292h-48q-21 0 -36.5 16t-15.5 40t15.5 40t36.5 16h117q24 0 39.5 -16t15.5 -40v-136q0 -92 -66 -156t-157 -64t-157 63.5t-66 156.5v256q0 95 67 157.5t157 62.5q80 0 148 -46q33 -21 33 -55q0 -22 -15 -38t-39 -16q-25 0 -50 17q-36 24 -77 24q-40 0 -70 -31.5 t-30 -74.5v-256q0 -42 29 -74t70 -32t70 31.5t29 74.5v80z" />
<glyph unicode="H" horiz-adv-x="599" d="M525 624v-568q0 -25 -17.5 -41.5t-44.5 -16.5t-44.5 16.5t-17.5 41.5v227h-203v-227q0 -25 -17.5 -41.5t-44.5 -16.5t-44.5 16.5t-17.5 41.5v568q0 25 17.5 41.5t44.5 16.5t44.5 -16.5t17.5 -41.5v-229h203v229q0 25 17.5 41.5t44.5 16.5t44.5 -16.5t17.5 -41.5z" />
<glyph unicode="I" horiz-adv-x="280" d="M202 624v-568q0 -25 -17.5 -41.5t-44.5 -16.5t-44.5 16.5t-17.5 41.5v568q0 25 17.5 41.5t44.5 16.5t44.5 -16.5t17.5 -41.5z" />
<glyph unicode="J" horiz-adv-x="404" d="M331 624v-433q0 -84 -54 -141t-142 -57q-40 0 -69 12q-45 18 -45 60q0 23 15.5 38t37.5 15q13 0 30.5 -5t29.5 -5q28 0 50.5 25t22.5 58v433q0 25 17.5 41.5t44.5 16.5t44.5 -16.5t17.5 -41.5z" />
<glyph unicode="K" horiz-adv-x="534" d="M196 624v-219q0 -8 8 -8q4 0 11 9l177 246q21 30 53 30q27 0 44.5 -17t17.5 -42q0 -22 -10 -35l-188 -246l186 -241q16 -20 16 -43q0 -25 -18.5 -42.5t-45.5 -17.5q-33 0 -55 31l-175 237q-5 9 -13 9t-8 -8v-211q0 -25 -17.5 -41.5t-44.5 -16.5t-44.5 16.5t-17.5 41.5 v568q0 25 17.5 41.5t44.5 16.5t44.5 -16.5t17.5 -41.5z" />
<glyph unicode="L" horiz-adv-x="448" d="M198 112h189q23 0 37.5 -16t14.5 -40t-14.5 -40t-37.5 -16h-255q-26 0 -42 15.5t-16 40.5v568q0 25 17.5 41.5t44.5 16.5t44.5 -16.5t17.5 -41.5v-512z" />
<glyph unicode="M" horiz-adv-x="656" d="M582 624v-568q0 -25 -17.5 -41.5t-44.5 -16.5t-44.5 16.5t-17.5 41.5v389l-71 -120q-21 -37 -59 -37t-59 37l-71 120v-389q0 -25 -17.5 -41.5t-44.5 -16.5t-44.5 16.5t-17.5 41.5v568q0 25 18 41.5t44 16.5q42 0 66 -40l126 -210l126 210q24 40 66 40q27 0 44.5 -16 t17.5 -42z" />
<glyph unicode="N" horiz-adv-x="603" d="M529 625v-569q0 -25 -17.5 -41.5t-43.5 -16.5q-43 0 -68 46l-206 376v-364q0 -26 -16.5 -42t-43.5 -16t-43.5 16t-16.5 42v567q0 26 17 42.5t44 16.5q44 0 68 -46l206 -380v369q0 26 16.5 41.5t43.5 15.5t43.5 -15.5t16.5 -41.5z" />
<glyph unicode="O" horiz-adv-x="566" d="M506 471v-262q0 -92 -66 -154.5t-157 -62.5t-157 62.5t-66 154.5v262q0 92 66 154.5t157 62.5t157 -62.5t66 -154.5zM184 471v-262q0 -42 28.5 -72.5t70.5 -30.5t70.5 30.5t28.5 72.5v262q0 42 -28.5 72.5t-70.5 30.5t-70.5 -30.5t-28.5 -72.5z" />
<glyph unicode="P" horiz-adv-x="521" d="M198 241v-185q0 -25 -17.5 -41.5t-44.5 -16.5t-44.5 16.5t-17.5 41.5v568q0 25 16 40.5t40 15.5h142q98 0 161 -60t63 -160t-61.5 -159.5t-162.5 -59.5h-74zM372 460q0 46 -27 77t-73 31h-74v-215h74q48 0 74 30.5t26 76.5z" />
<glyph unicode="Q" horiz-adv-x="566" d="M506 471v-262q0 -105 -83 -170q33 -10 60 -30q35 -29 35 -69q0 -25 -16 -41t-46 -16q-23 0 -37.5 11t-23 26.5t-19 31.5t-31.5 27.5t-53 12.5h-9q-91 0 -157 62.5t-66 154.5v262q0 92 66 154.5t157 62.5t157 -62.5t66 -154.5zM184 471v-262q0 -42 28.5 -72.5t70.5 -30.5 t70.5 30.5t28.5 72.5v262q0 42 -28.5 72.5t-70.5 30.5t-70.5 -30.5t-28.5 -72.5z" />
<glyph unicode="R" horiz-adv-x="545" d="M198 255v-199q0 -25 -17.5 -41.5t-44.5 -16.5t-44.5 16.5t-17.5 41.5v568q0 24 15.5 40t40.5 16h137q98 0 162 -57t64 -153q0 -74 -34.5 -122.5t-80.5 -71.5l-2 -3l114 -177q13 -20 13 -40q0 -24 -19 -41t-47 -17q-34 0 -56 38l-127 219h-56zM369 470q0 46 -28 72t-74 26 h-69v-201h69q48 0 75 27.5t27 75.5z" />
<glyph unicode="S" horiz-adv-x="483" d="M255 574q-35 0 -62 -26t-27 -63q0 -30 28.5 -50.5t82.5 -39.5q85 -30 127.5 -72t42.5 -125q0 -87 -63 -146.5t-156 -59.5q-71 0 -142 40q-41 23 -41 61q0 22 15.5 37.5t38.5 15.5q17 0 43 -13q54 -27 86 -27q43 0 70 27t27 65q0 17 -6.5 30.5t-14.5 22t-26 18t-29.5 14 t-36.5 13.5q-82 30 -125.5 71t-43.5 117q0 86 64 145t148 59q76 0 143 -42q34 -20 34 -54q0 -22 -15 -38.5t-39 -16.5q-22 0 -52 18q-32 19 -71 19z" />
<glyph unicode="T" horiz-adv-x="494" d="M309 568v-512q0 -25 -17.5 -41.5t-44.5 -16.5t-44.5 16.5t-17.5 41.5v512h-121q-22 0 -37 16t-15 40t15 40t37 16h366q24 0 38 -16t14 -40t-14 -40t-38 -16h-121z" />
<glyph unicode="U" horiz-adv-x="586" d="M392 206v418q0 25 17.5 41.5t44.5 16.5t44.5 -16.5t17.5 -41.5v-418q0 -91 -66 -152.5t-157 -61.5t-157 61.5t-66 152.5v418q0 25 17.5 41.5t44.5 16.5t44.5 -16.5t17.5 -41.5v-418q0 -41 29 -70.5t70 -29.5t70 29.5t29 70.5z" />
<glyph unicode="V" horiz-adv-x="542" d="M271 -4q-30 0 -52 18.5t-30 45.5l-166 549q-3 12 -3 18q0 25 19 40t47 15q20 0 35.5 -12t20.5 -31l106 -391l23 -107l23 107l106 391q5 19 20.5 31t35.5 12q28 0 47 -15t19 -40q0 -6 -3 -18l-166 -549q-8 -27 -30 -45.5t-52 -18.5z" />
<glyph unicode="W" horiz-adv-x="706" d="M353 397l-103 -351q-6 -21 -24 -35.5t-43 -14.5q-28 0 -46 16t-21 39l-81 572q-3 24 14 42.5t47 18.5q24 0 41 -13t19 -33l48 -419l81 319q6 21 25.5 35t42.5 14t42.5 -14t25.5 -35l81 -319l49 419q2 20 18.5 33t40.5 13q30 0 47 -18.5t14 -42.5l-81 -572q-3 -23 -21 -39 t-46 -16q-25 0 -43 14.5t-24 35.5z" />
<glyph unicode="X" horiz-adv-x="538" d="M269 438v-192l-121 -213q-19 -35 -54 -35q-25 0 -45 16.5t-20 41.5q0 18 10 35l152 251l-151 245q-11 18 -11 38q0 24 19.5 40.5t44.5 16.5q36 0 54 -32zM269 246v192l122 212q18 32 54 32q25 0 44.5 -16.5t19.5 -40.5q0 -20 -11 -38l-151 -245l152 -251q10 -17 10 -35 q0 -25 -20 -41.5t-45 -16.5q-35 0 -54 35z" />
<glyph unicode="Y" horiz-adv-x="529" d="M327 289v-239q0 -25 -17 -39.5t-44 -14.5q-29 0 -46 14.5t-17 39.5v239l-175 301q-10 18 -10 33q0 25 19 42t45 17q38 0 56 -35l127 -239l127 239q18 35 56 35q26 0 45 -17t19 -42q0 -15 -10 -33z" />
<glyph unicode="Z" horiz-adv-x="487" d="M32 54q0 22 17 54l250 463h-215q-24 0 -38 15t-14 40q0 24 14 39t38 15h312q24 0 40 -15.5t16 -38.5q0 -18 -18 -54l-249 -462h213q23 0 37.5 -15.5t14.5 -39.5t-14.5 -39.5t-37.5 -15.5h-310q-26 0 -41 15t-15 39z" />
<glyph unicode="[" horiz-adv-x="297" d="M244 612h-58v-670h58q20 0 32.5 -14.5t12.5 -35.5t-12.5 -35.5t-32.5 -14.5h-117q-24 0 -39.5 15.5t-15.5 37.5v764q0 23 15.5 38t39.5 15h117q20 0 32.5 -14.5t12.5 -35.5t-12.5 -35.5t-32.5 -14.5z" />
<glyph unicode="\" horiz-adv-x="328" d="M213 -26l-210 674q-3 9 -3 22q0 20 19 35t40 15q44 0 56 -41l210 -674q3 -9 3 -22q0 -20 -18.5 -35t-39.5 -15q-45 0 -57 41z" />
<glyph unicode="]" horiz-adv-x="297" d="M111 612h-58q-20 0 -32.5 14.5t-12.5 35.5t12.5 35.5t32.5 14.5h117q24 0 39.5 -15t15.5 -38v-764q0 -22 -15.5 -37.5t-39.5 -15.5h-117q-20 0 -32.5 14.5t-12.5 35.5t12.5 35.5t32.5 14.5h58v670z" />
<glyph unicode="^" horiz-adv-x="500" d="M51 363l145 276q19 36 55 36q18 0 33.5 -10t22.5 -25l142 -277q6 -12 6 -27q0 -22 -15.5 -37.5t-35.5 -15.5q-34 0 -49 32l-104 198l-104 -198q-16 -32 -50 -32q-21 0 -36.5 15.5t-15.5 37.5q0 15 6 27z" />
<glyph unicode="_" horiz-adv-x="500" d="M426 -116h-352q-21 0 -35.5 15.5t-14.5 38.5q0 24 14.5 39t35.5 15h352q22 0 36 -15t14 -39q0 -23 -14 -38.5t-36 -15.5z" />
<glyph unicode="`" horiz-adv-x="222" d="M115 711l77 -89q10 -12 10 -27q0 -14 -10.5 -24t-23.5 -10q-16 0 -28 10l-97 69q-23 15 -23 39q0 22 16 37t38 15q25 0 41 -20z" />
<glyph unicode="a" horiz-adv-x="474" d="M224 503q80 0 135 -51t55 -130v-282q0 -18 -13 -31t-34 -13q-18 0 -39 17.5t-31 17.5q-9 0 -25 -10q-42 -27 -75 -27q-68 0 -112.5 45.5t-44.5 115.5q0 74 54 109.5t130 35.5h70v22q0 31 -20.5 51t-49.5 20q-26 0 -62 -15q-25 -11 -42 -11q-20 0 -35 14.5t-15 35.5 q0 37 39 56q60 30 115 30zM157 159q0 -23 18.5 -40t47.5 -17q30 0 51 17.5t20 43.5v53h-73q-28 0 -46 -15.5t-18 -41.5z" />
<glyph unicode="b" horiz-adv-x="502" d="M186 658v-177q0 -10 12 -10l31 16q31 16 58 16q68 0 115.5 -53t47.5 -128v-149q0 -75 -46.5 -128t-116.5 -53q-26 0 -61.5 18.5t-44.5 18.5q-10 0 -31 -16.5t-39 -16.5t-31.5 12.5t-13.5 32.5v617q0 23 17.5 39.5t42.5 16.5q26 0 43 -16t17 -40zM330 174v147q0 32 -21 52 t-51 20t-51 -20t-21 -52v-147q0 -34 20.5 -53t51.5 -19t51.5 19.5t20.5 52.5z" />
<glyph unicode="c" horiz-adv-x="405" d="M243 503q50 0 100 -27q35 -19 35 -53q0 -21 -15.5 -37t-36.5 -16q-15 0 -35 10q-26 13 -48 13q-27 0 -49 -20.5t-22 -51.5v-146q0 -32 22 -52.5t49 -20.5q24 0 54 17q18 10 34 10q22 0 37 -15.5t15 -38.5q0 -32 -34 -53q-49 -30 -106 -30q-76 0 -133.5 51t-57.5 132v146 q0 80 57.5 131t133.5 51z" />
<glyph unicode="d" horiz-adv-x="502" d="M436 658v-617q0 -19 -13 -32t-33 -13q-16 0 -37 16.5t-32 16.5q-10 0 -32 -12q-42 -25 -75 -25q-66 0 -114 53.5t-48 128.5v147q0 74 50.5 128t119.5 54q43 0 80 -26q6 -4 10 -1.5t4 8.5v174q0 24 17 40t43 16t43 -16.5t17 -39.5zM172 321v-147q0 -29 21.5 -50.5 t50.5 -21.5q30 0 51 21t21 51v147q0 31 -20.5 51.5t-51.5 20.5q-29 0 -50.5 -21.5t-21.5 -50.5z" />
<glyph unicode="e" horiz-adv-x="470" d="M245 -8q-77 0 -135 52t-58 129v149q0 76 56.5 128.5t133.5 52.5q75 0 130.5 -53.5t55.5 -127.5v-51q0 -23 -18.5 -43t-43.5 -20h-194v-34q0 -32 22.5 -52t50.5 -20q35 0 72 20q24 13 38 13q23 0 37.5 -16.5t14.5 -38.5q0 -33 -37 -55q-55 -33 -125 -33zM172 322v-26h140 v26q0 29 -21 50t-49 21t-49 -20.5t-21 -50.5z" />
<glyph unicode="f" horiz-adv-x="346" d="M221 389v-335q0 -23 -17 -39.5t-43 -16.5t-43 16t-17 40v335h-55q-16 0 -28 13t-12 33t12 34t27 16l55 8h1v42q0 77 52 126t129 49q23 0 37.5 -14.5t14.5 -37.5q0 -24 -13.5 -38.5t-36.5 -14.5q-28 0 -45.5 -19t-17.5 -51v-40h67q20 0 34 -15t14 -39q0 -22 -14 -37 t-34 -15h-67z" />
<glyph unicode="g" horiz-adv-x="477" d="M396 349v-53q0 -66 -50 -110.5t-116 -44.5l-38 2q-12 1 -21.5 -5.5t-9.5 -18.5q0 -26 36 -26h89q78 0 125 -35.5t47 -104.5q0 -73 -63 -116t-164 -43t-156.5 40t-55.5 110q0 33 19 59.5t46 39.5q-33 17 -33 61q0 53 58 78q-18 12 -32.5 44t-14.5 70v50q0 66 48 110.5 t120 44.5q25 0 59.5 -10t43.5 -10q23 0 48 14q33 19 46 19q24 0 38.5 -14t14.5 -38q0 -32 -25 -49.5t-74 -13.5q15 -18 15 -50zM170 346v-50q0 -25 17 -42t42 -17q24 0 41.5 17.5t17.5 41.5v50q0 25 -16.5 42t-42.5 17q-25 0 -42 -17t-17 -42zM280 1h-90q-57 0 -57 -52 q0 -27 29 -41.5t73 -14.5q45 0 76 14.5t31 41.5q0 25 -16.5 38.5t-45.5 13.5z" />
<glyph unicode="h" horiz-adv-x="508" d="M328 54v265q0 34 -20 54t-51 20t-51 -20.5t-20 -53.5v-265q0 -23 -17 -39.5t-43 -16.5t-43 16t-17 40v604q0 24 17 40t43 16t43 -16.5t17 -39.5v-176q0 -13 13 -13q3 0 20 10q37 24 74 24q64 0 109.5 -52t45.5 -129v-268q0 -23 -17 -39.5t-43 -16.5t-43 16t-17 40z" />
<glyph unicode="i" horiz-adv-x="252" d="M186 441v-387q0 -23 -17 -39.5t-43 -16.5t-43 16t-17 40v387q0 24 17 40t43 16t43 -16.5t17 -39.5zM57 647q0 30 20 49t49 19q28 0 48.5 -19t20.5 -49t-20.5 -49t-48.5 -19q-29 0 -49 19t-20 49z" />
<glyph unicode="j" horiz-adv-x="252" d="M186 441v-484q0 -56 -39 -103.5t-88 -47.5q-27 0 -43.5 16t-16.5 40q0 19 10.5 33t23 22t23 24.5t10.5 39.5v460q0 24 17 40t43 16t43 -16.5t17 -39.5zM57 647q0 30 20 49t49 19q28 0 48.5 -19t20.5 -49t-20.5 -49t-48.5 -19q-29 0 -49 19t-20 49z" />
<glyph unicode="k" horiz-adv-x="470" d="M198 199q-12 0 -12 -11v-134q0 -23 -17 -39.5t-43 -16.5t-43 16t-17 40v604q0 24 17 40t43 16t43 -16.5t17 -39.5v-329q0 -11 11 -11q7 0 18 13l117 141q23 26 48 26q24 0 40.5 -16.5t16.5 -40.5q0 -20 -14 -36l-126 -146l133 -171q12 -16 12 -35q0 -22 -16.5 -38.5 t-39.5 -16.5q-32 0 -54 29l-115 158q-11 14 -19 14z" />
<glyph unicode="l" horiz-adv-x="252" d="M186 658v-604q0 -23 -17 -39.5t-43 -16.5t-43 16t-17 40v604q0 24 17 40t43 16t43 -16.5t17 -39.5z" />
<glyph unicode="m" horiz-adv-x="746" d="M316 54v273q0 28 -19.5 47t-45.5 19t-45.5 -19t-19.5 -47v-273q0 -23 -17 -39.5t-43 -16.5t-43 16t-17 40v399q0 19 14 31.5t32 12.5q22 0 41.5 -18.5t27.5 -18.5q6 0 42 21.5t72 21.5q29 0 52.5 -11.5t38 -23.5t22.5 -12q9 0 27 12t44 23.5t54 11.5q65 0 109 -47 t44 -125v-277q0 -23 -17 -39.5t-43 -16.5t-43 16t-17 40v273q0 29 -19 47.5t-46 18.5t-46 -19t-19 -47v-273q0 -23 -17 -39.5t-43 -16.5t-43 16t-17 40z" />
<glyph unicode="n" horiz-adv-x="510" d="M66 54v396q0 21 15 34t36 13q20 0 38 -17.5t28 -17.5q8 0 44 20.5t70 20.5q62 0 106.5 -50t44.5 -129v-270q0 -23 -17 -39.5t-43 -16.5t-43 16t-17 40v268q0 32 -20.5 51.5t-50.5 19.5q-31 0 -51 -19t-20 -52v-268q0 -23 -17 -39.5t-43 -16.5t-43 16t-17 40z" />
<glyph unicode="o" horiz-adv-x="488" d="M436 319v-143q0 -81 -58 -132.5t-134 -51.5t-134 51.5t-58 132.5v143q0 81 58 132.5t134 51.5t134 -51.5t58 -132.5zM172 319v-143q0 -31 21 -52.5t51 -21.5q29 0 50.5 21.5t21.5 52.5v143q0 31 -21 52.5t-51 21.5t-51 -21.5t-21 -52.5z" />
<glyph unicode="p" horiz-adv-x="502" d="M198 19q-12 0 -12 -10v-147q0 -23 -17 -39.5t-43 -16.5t-43 16t-17 40v590q0 21 14 33t33 12q26 0 46 -20q15 -15 26 -15q4 0 31 18q33 23 74 23q67 0 113.5 -52t46.5 -130v-147q0 -76 -49 -129t-117 -53q-29 0 -63 17zM330 174v147q0 30 -21.5 51t-50.5 21 q-31 0 -51.5 -21t-20.5 -51v-147q0 -31 20.5 -51.5t51.5 -20.5q30 0 51 20.5t21 51.5z" />
<glyph unicode="q" horiz-adv-x="502" d="M436 454v-592q0 -23 -17 -39.5t-43 -16.5t-43 16t-17 40v153q0 7 -7 7q-5 0 -9 -3q-44 -27 -84 -27q-69 0 -116.5 52.5t-47.5 129.5v147q0 77 50 129.5t118 52.5q31 0 62.5 -17.5t37.5 -17.5q17 0 35 17q16 14 34 14q19 0 33 -12.5t14 -32.5zM172 321v-147 q0 -29 21.5 -50.5t50.5 -21.5q31 0 51.5 21t20.5 51v147q0 30 -20.5 51t-51.5 21q-28 0 -50 -21t-22 -51z" />
<glyph unicode="r" horiz-adv-x="335" d="M323 446q0 -26 -14.5 -41.5t-39.5 -15.5q-38 0 -60.5 -22t-22.5 -63v-250q0 -23 -17 -39.5t-43 -16.5t-43 16t-17 40v400q0 20 13.5 32.5t31.5 12.5q17 0 38 -19.5t30 -19.5q10 0 36 21.5t55 21.5q24 0 38.5 -16.5t14.5 -40.5z" />
<glyph unicode="s" horiz-adv-x="410" d="M198 -8q-57 0 -110 24q-46 21 -46 60q0 22 15.5 37.5t37.5 15.5q14 0 35 -10q38 -19 68 -19q26 0 43.5 14t17.5 36q0 20 -18 31t-59 24q-67 20 -104.5 51t-37.5 89q0 67 52 112.5t126 45.5q62 0 108 -26q37 -21 37 -56q0 -21 -15 -37t-36 -16q-16 0 -42 12q-30 13 -52 13 q-25 0 -42.5 -12.5t-17.5 -34.5q0 -5 1.5 -9.5t4.5 -8t6 -6.5t9 -5.5t10 -4.5t11 -4.5t11 -3.5t12 -3.5t11 -3.5q69 -20 106 -51.5t37 -94.5q0 -71 -49.5 -115t-129.5 -44z" />
<glyph unicode="t" horiz-adv-x="363" d="M46 389q-17 0 -28.5 13t-11.5 33t11.5 34t27.5 16l50 7l17 91q4 20 19 32t37 12q19 0 32.5 -13t13.5 -33v-86h75q21 0 35.5 -15t14.5 -39q0 -22 -14.5 -37t-35.5 -15h-75v-226q0 -29 14 -45t39 -16q5 0 17 2.5t18 2.5q19 0 31 -15t12 -35q0 -33 -26.5 -49t-62.5 -16 q-74 0 -118 46.5t-44 122.5v228h-48z" />
<glyph unicode="u" horiz-adv-x="510" d="M182 174q0 -34 19 -53t51 -19q30 0 51 19.5t21 52.5v267q0 24 17 40t43 16t43 -16.5t17 -39.5v-396q0 -21 -13.5 -34t-32.5 -13q-23 0 -38 14q-25 22 -33 22q-7 0 -36 -16q-42 -26 -74 -26q-64 0 -109.5 51.5t-45.5 127.5v270q0 24 17 40t43 16t43 -16.5t17 -39.5v-267z " />
<glyph unicode="v" horiz-adv-x="454" d="M242 210l70 246q11 42 58 42q25 0 43.5 -15.5t18.5 -38.5q0 -8 -3 -20l-127 -376q-18 -53 -75 -53q-29 0 -48 15.5t-27 37.5l-127 376q-3 9 -3 18q0 24 18 40t48 16q43 0 54 -42l70 -246l14 -61h2z" />
<glyph unicode="w" horiz-adv-x="686" d="M335 315l-83 -268q-6 -22 -23.5 -36.5t-43.5 -14.5q-28 0 -45.5 15.5t-22.5 37.5l-84 384q-1 6 -1 12q0 22 18.5 37t43.5 15q21 0 35.5 -11.5t18.5 -30.5l38 -204l11 -77h2l18 77l60 197q15 49 66 49t66 -49l60 -197l18 -77h2l11 77l38 204q4 19 18.5 30.5t35.5 11.5 q25 0 43.5 -15t18.5 -37q0 -6 -1 -12l-84 -384q-5 -22 -22.5 -37.5t-45.5 -15.5q-26 0 -43.5 14.5t-23.5 36.5l-83 268l-8 35z" />
<glyph unicode="x" horiz-adv-x="442" d="M141 472l80 -133l80 133q16 27 50 27q25 0 42.5 -17t17.5 -40q0 -19 -10 -35l-108 -157l111 -164q10 -16 10 -31q0 -25 -17.5 -42t-45.5 -17q-31 0 -52 36l-77 128l-79 -128q-21 -36 -52 -36q-28 0 -45.5 17t-17.5 42q0 15 10 31l111 164l-108 158q-10 16 -10 34 q0 23 17.5 40t42.5 17q34 0 50 -27z" />
<glyph unicode="y" horiz-adv-x="454" d="M242 211l70 245q11 42 58 42q25 0 43.5 -15.5t18.5 -38.5q0 -8 -3 -20l-165 -478q-20 -58 -60 -99t-91 -41q-28 0 -44 14t-16 40q0 43 44 58q33 11 53 64l14 38l-139 404q-3 9 -3 18q0 24 18 40t48 16q43 0 54 -42l70 -245l14 -56h2z" />
<glyph unicode="z" horiz-adv-x="409" d="M323 495q23 0 37.5 -15.5t14.5 -36.5q0 -28 -16 -52l-179 -285h151q20 0 34 -15t14 -37q0 -24 -13.5 -39t-34.5 -15h-251q-22 0 -36 15t-14 37q0 24 18 52l179 285h-148q-21 0 -34.5 14.5t-13.5 37.5q0 24 13.5 39t34.5 15h244z" />
<glyph unicode="{" horiz-adv-x="268" d="M142 277q64 -37 64 -84q0 -33 -13.5 -96.5t-13.5 -101.5q0 -45 29 -49q42 -6 42 -53q0 -21 -13.5 -35.5t-36.5 -14.5q-71 0 -105.5 41t-34.5 104q0 35 19 96.5t19 98.5q0 9 -19.5 23.5t-39 33t-19.5 37.5t19.5 37.5t39 33t19.5 23.5q0 37 -19 98.5t-19 96.5 q0 63 34.5 104t105.5 41q23 0 36.5 -14.5t13.5 -35.5q0 -47 -42 -53q-29 -4 -29 -49q0 -38 13.5 -101.5t13.5 -96.5q0 -47 -64 -84z" />
<glyph unicode="|" horiz-adv-x="256" d="M188 658v-802q0 -23 -17 -39.5t-43 -16.5t-43 16t-17 40v802q0 24 17 40t43 16t43 -16.5t17 -39.5z" />
<glyph unicode="}" horiz-adv-x="266" d="M124 277q-62 36 -62 84q0 33 13.5 96.5t13.5 101.5q0 45 -29 49q-42 6 -42 53q0 21 13.5 35.5t36.5 14.5q71 0 106 -41t35 -104q0 -35 -19.5 -96.5t-19.5 -98.5q0 -9 19 -23t38 -33t19 -38t-19 -38t-38 -33t-19 -23q0 -37 19.5 -98.5t19.5 -96.5q0 -63 -35 -104t-106 -41 q-23 0 -36.5 14.5t-13.5 35.5q0 47 42 53q29 4 29 49q0 38 -13.5 101.5t-13.5 96.5q0 48 62 84z" />
<glyph unicode="~" horiz-adv-x="500" d="M342 203q-26 0 -50.5 12t-64.5 40q-49 34 -67 34q-15 0 -24 -9t-9 -24q0 -20 -15.5 -34.5t-37.5 -14.5q-24 0 -38.5 14t-14.5 35q0 60 40 96.5t98 36.5q42 0 116 -51q52 -35 67 -35q14 0 22.5 10t8.5 25q0 20 15.5 34t37.5 14t37.5 -14t15.5 -34q0 -60 -38 -97.5 t-99 -37.5z" />
<glyph unicode="&#xa1;" horiz-adv-x="262" d="M127 299q18 0 30.5 -10.5t14.5 -27.5q15 -130 16 -231v-162q0 -23 -18.5 -40.5t-43.5 -17.5q-26 0 -44 16.5t-18 41.5v163q1 81 18 230q2 16 15 27t30 11zM61 436q0 28 19 46.5t47 18.5q27 0 46 -19t19 -46q0 -28 -19 -46.5t-46 -18.5q-28 0 -47 18.5t-19 46.5z" />
<glyph unicode="&#xa2;" d="M331 645v-67q28 -7 62 -25q34 -21 34 -51q0 -21 -15 -37.5t-36 -16.5q-18 0 -36 11q-32 18 -51 18q-27 0 -49.5 -19.5t-22.5 -50.5v-143q0 -32 23 -52.5t49 -20.5q21 0 56 20q18 11 32 11q21 0 36.5 -16t15.5 -38q0 -31 -34 -53q-31 -18 -64 -26v-54q0 -20 -15 -34 t-37 -14t-37.5 14t-15.5 34v59q-55 18 -91 63t-36 107v143q0 60 36 104.5t91 62.5v71q0 20 15.5 34t37.5 14t37 -14t15 -34z" />
<glyph unicode="&#xa3;" d="M370 295h-88v-115q0 -57 -35 -74h188q21 0 35.5 -15.5t14.5 -37.5t-14.5 -37.5t-35.5 -15.5h-346q-20 0 -35 15.5t-15 37.5t15 37.5t35 15.5q32 0 51.5 19t19.5 56v114h-49q-21 0 -35.5 16t-14.5 37q0 22 14.5 37.5t35.5 15.5h49v110q0 74 55.5 124t131.5 50q44 0 80 -16 q32 -13 32 -52q0 -21 -14 -35t-35 -14q-13 0 -32 5.5t-31 5.5q-26 0 -45.5 -19.5t-19.5 -48.5v-110h88q22 0 36 -15t14 -38q0 -21 -14.5 -37t-35.5 -16z" />
<glyph unicode="&#xa4;" d="M92 316q0 46 21 82l-51 52q-18 18 -18 38t16 36t36 16q25 0 40 -17l50 -56q37 16 76 16q41 0 74 -16l52 56q15 17 38 17q20 0 36 -16t16 -36q0 -19 -16 -35l-53 -54q22 -38 22 -83q0 -44 -22 -82l55 -53q15 -15 15 -37q0 -20 -16.5 -36t-35.5 -16q-22 0 -39 17l-53 57 q-35 -16 -73 -16q-40 0 -75 16l-51 -56q-18 -18 -40 -18q-20 0 -36 16t-16 36t16 36l53 54q-21 36 -21 82zM190 316q0 -33 19.5 -55.5t52.5 -22.5q32 0 51 22.5t19 55.5q0 34 -19 56.5t-51 22.5q-33 0 -52.5 -22.5t-19.5 -56.5z" />
<glyph unicode="&#xa5;" d="M407 126h-83v-76q0 -25 -17 -39.5t-44 -14.5q-29 0 -46 14.5t-17 39.5v76h-82q-18 0 -28 11.5t-10 29.5t10 29t28 11h82v42h-82q-18 0 -28 11t-10 29t10 29.5t28 11.5h71l-164 260q-10 18 -10 33q0 25 19 42t45 17q38 0 56 -35l127 -215l127 215q18 35 56 35q26 0 45 -17 t19 -42q0 -15 -10 -33l-165 -260h73q18 0 28 -11.5t10 -29.5t-10 -29t-28 -11h-83v-42h83q18 0 28 -11t10 -29t-10 -29.5t-28 -11.5z" />
<glyph unicode="&#xa6;" horiz-adv-x="256" d="M188 658v-280q0 -23 -17 -39.5t-43 -16.5t-43 16t-17 40v280q0 24 17 40t43 16t43 -16.5t17 -39.5zM188 136v-280q0 -23 -17 -39.5t-43 -16.5t-43 16t-17 40v280q0 24 17 40t43 16t43 -16.5t17 -39.5z" />
<glyph unicode="&#xa7;" horiz-adv-x="423" d="M397 269q0 -71 -72 -118q40 -42 40 -104q0 -72 -54.5 -122t-123.5 -50q-65 0 -119 37q-28 19 -28 46q0 20 14 35t33 15q10 0 36 -12q38 -20 64 -20q28 0 47.5 21t19.5 50q0 23 -22.5 41t-75.5 43q-34 16 -52.5 26.5t-39 29.5t-29.5 44t-9 60q0 72 72 119q-40 40 -40 103 q0 71 54.5 121t123.5 50q67 0 120 -36q27 -18 27 -47q0 -20 -13.5 -34t-34.5 -14q-10 0 -34 11q-38 20 -65 20q-28 0 -47.5 -21t-19.5 -50q0 -24 22.5 -41.5t75.5 -42.5q66 -31 98 -63.5t32 -96.5zM199 345l-24 11q-39 -31 -39 -61q0 -27 19 -42t69 -38l22 -11q41 29 41 61 q0 27 -18.5 41.5t-69.5 38.5z" />
<glyph unicode="&#xa8;" horiz-adv-x="314" d="M174 647q0 26 16.5 43t43.5 17t43.5 -17t16.5 -43q0 -27 -16.5 -43.5t-43.5 -16.5t-43.5 17t-16.5 43zM20 647q0 26 16.5 43t43.5 17q26 0 42 -17t16 -43t-16 -43t-42 -17q-27 0 -43.5 16.5t-16.5 43.5z" />
<glyph unicode="&#xa9;" horiz-adv-x="718" d="M315 409v-137q0 -26 16.5 -42.5t38.5 -16.5q16 0 40 13q14 8 25 8q15 0 23.5 -11t8.5 -26q0 -20 -19 -32q-42 -25 -78 -25q-59 0 -96.5 35.5t-37.5 96.5v137q0 60 40 95.5t94 35.5q39 0 78 -24q20 -13 20 -32q0 -15 -9 -25.5t-24 -10.5q-12 0 -25 8q-22 13 -40 13 q-22 0 -38.5 -17.5t-16.5 -42.5zM24 340q0 152 99.5 250t235.5 98t235.5 -98.5t99.5 -249.5q0 -153 -97 -250.5t-238 -97.5t-238 97t-97 251zM359 72q107 0 178 73t71 195q0 121 -71.5 194.5t-177.5 73.5q-108 0 -178.5 -73t-70.5 -195t70 -195t179 -73z" />
<glyph unicode="&#xaa;" horiz-adv-x="324" d="M160 688q52 0 87 -33.5t35 -79.5v-187q0 -11 -9 -19.5t-24 -8.5q-12 0 -28 12q-11 9 -15 9q-6 0 -18 -8q-19 -15 -53 -15q-43 0 -71 30t-28 72q0 51 37.5 74.5t90.5 23.5h35v17q0 16 -11.5 27.5t-27.5 11.5q-14 0 -36 -9q-16 -8 -32 -8q-15 0 -26 10t-11 24q0 23 21 33 q41 24 84 24zM119 462q0 -16 11.5 -25.5t29.5 -9.5q17 0 28 10.5t11 25.5v38h-35q-45 0 -45 -39zM251 246h-170q-16 0 -25.5 10.5t-9.5 25.5t9.5 25t25.5 10h170q15 0 24 -10t9 -25t-9 -25.5t-24 -10.5z" />
<glyph unicode="&#xab;" horiz-adv-x="468" d="M222 253q0 23 18 43l131 134q12 14 28 14t26.5 -10t10.5 -24q0 -10 -7 -20l-103 -137l103 -137q7 -11 7 -20q0 -14 -10.5 -24t-26.5 -10t-28 14l-131 134q-18 20 -18 43zM24 253q0 23 18 43l131 134q12 14 28 14t26.5 -10t10.5 -24q0 -10 -7 -20l-103 -137l103 -137 q7 -11 7 -20q0 -14 -10.5 -24t-26.5 -10t-28 14l-131 134q-18 20 -18 43z" />
<glyph unicode="&#xac;" d="M421 37q-22 0 -38.5 14.5t-16.5 34.5v109h-271q-21 0 -35.5 16t-14.5 38t14.5 38t35.5 16h332q21 0 35 -16t14 -38v-163q0 -20 -16.5 -34.5t-38.5 -14.5z" />
<glyph unicode="&#xad;" horiz-adv-x="328" d="M250 196h-170q-21 0 -35.5 15.5t-14.5 38.5q0 24 14.5 39t35.5 15h170q22 0 36 -15t14 -39q0 -23 -14 -38.5t-36 -15.5z" />
<glyph unicode="&#xae;" horiz-adv-x="718" d="M327 287v-111q0 -15 -11.5 -25.5t-27.5 -10.5q-17 0 -28.5 10.5t-11.5 25.5v328q0 14 10 24.5t26 10.5h79q58 0 96 -34t38 -91q0 -78 -65 -114l61 -98q9 -14 9 -26q0 -14 -12.5 -25t-28.5 -11q-23 0 -37 23h1l-71 124h-27zM418 414q0 25 -14.5 38.5t-40.5 13.5h-36v-107 h36q55 0 55 55zM24 340q0 152 99.5 250t235.5 98t235.5 -98.5t99.5 -249.5q0 -153 -97 -250.5t-238 -97.5t-238 97t-97 251zM359 72q107 0 178 73t71 195q0 121 -71.5 194.5t-177.5 73.5q-108 0 -178.5 -73t-70.5 -195t70 -195t179 -73z" />
<glyph unicode="&#xaf;" horiz-adv-x="290" d="M230 602h-170q-16 0 -28 12.5t-12 30.5t12 30.5t28 12.5h170q16 0 28 -12.5t12 -30.5t-12 -30.5t-28 -12.5z" />
<glyph unicode="&#xb0;" horiz-adv-x="257" d="M20 607q0 48 31 77t76 29q46 0 78 -29t32 -77t-32 -77.5t-78 -29.5t-76.5 29.5t-30.5 77.5zM82 607q0 -22 12.5 -36.5t32.5 -14.5q21 0 34.5 14.5t13.5 36.5t-13.5 36t-34.5 14q-20 0 -32.5 -14t-12.5 -36z" />
<glyph unicode="&#xb1;" d="M429 303h-111v-113q0 -20 -16.5 -34.5t-38.5 -14.5t-38.5 14.5t-16.5 34.5v113h-113q-21 0 -35.5 16t-14.5 38t14.5 38t35.5 16h113v113q0 20 16.5 35t38.5 15t38.5 -15t16.5 -35v-113h111q21 0 35.5 -16t14.5 -38t-14.5 -38t-35.5 -16zM429 0h-334q-21 0 -35.5 16 t-14.5 38t14.5 38t35.5 16h334q21 0 35.5 -16t14.5 -38t-14.5 -38t-35.5 -16z" />
<glyph unicode="&#xb2;" horiz-adv-x="310" d="M147 722q57 0 93.5 -34t36.5 -85q0 -54 -47 -111l-74 -88h87q17 0 29 -13t12 -31q0 -19 -11.5 -31t-29.5 -12h-171q-19 0 -31 14.5t-12 32.5q0 26 22 53l106 128q25 30 25 58q0 13 -10 22t-24 9q-20 0 -39 -21q-16 -16 -38 -16q-16 0 -28.5 13t-12.5 30q0 21 17 38 q44 44 100 44z" />
<glyph unicode="&#xb3;" horiz-adv-x="310" d="M149 477h-33q-17 0 -29 12t-12 28q0 17 12 29.5t29 12.5h33q14 0 24 9.5t10 22.5v12q0 14 -10.5 23t-23.5 9q-15 0 -37 -14q-18 -12 -35 -12q-16 0 -28 12.5t-12 29.5q0 22 19 37q42 34 93 34t88.5 -33.5t37.5 -85.5v-12q0 -21 -13 -41.5t-31 -31.5q44 -28 44 -73v-16 q0 -52 -37.5 -85t-88.5 -33t-91 31q-22 18 -22 41q0 17 11.5 29t27.5 12q18 0 35 -12q22 -15 39 -15q13 0 23.5 9t10.5 23v16q0 14 -10 23t-24 9z" />
<glyph unicode="&#xb4;" horiz-adv-x="222" d="M30 622l77 89q16 20 41 20q22 0 38 -15t16 -37q0 -24 -23 -39l-97 -69q-12 -10 -28 -10q-13 0 -23.5 10t-10.5 24q0 15 10 27z" />
<glyph unicode="&#xb5;" horiz-adv-x="510" d="M182 441v-267q0 -34 19 -53t51 -19q30 0 51 19.5t21 52.5v267q0 24 17 40t43 16t43 -16.5t17 -39.5v-396q0 -21 -13.5 -34t-32.5 -13q-23 0 -38 14q-25 22 -33 22q-5 0 -11 -2.5t-14 -7.5t-9 -6q-39 -24 -71 -24q-18 0 -40 12q0 -109 -54 -170q-27 -29 -58 -29 q-26 0 -42 13.5t-16 37.5t19 50q31 40 31 89v444q0 24 17 40t43 16t43 -16.5t17 -39.5z" />
<glyph unicode="&#xb6;" horiz-adv-x="495" d="M431 -5q0 -21 -14 -35t-37 -14t-37 13.5t-14 35.5v583h-60v-583q0 -22 -14 -35.5t-37 -13.5t-37 13.5t-14 35.5v331q-51 0 -100 50.5t-49 120.5q0 81 51 132t118 51h198q21 0 33.5 -13.5t12.5 -36.5v-635z" />
<glyph unicode="&#xb7;" horiz-adv-x="204" d="M33 252q0 30 20 49t49 19q28 0 48.5 -19t20.5 -49t-20.5 -49t-48.5 -19q-29 0 -49 19t-20 49z" />
<glyph unicode="&#xb8;" horiz-adv-x="222" d="M50 -120q12 0 24 -7q18 -9 29 -9q12 0 19.5 6.5t7.5 17.5q0 21 -30 21q-17 0 -29 8t-12 22q0 8 3 20l15 55h63l-6 -50q26 -1 47 -19.5t21 -55.5q0 -40 -28 -65.5t-69 -25.5q-37 0 -66 18q-19 11 -19 32q0 13 9 22.5t21 9.5z" />
<glyph unicode="&#xb9;" horiz-adv-x="266" d="M106 590l-15 -10q-13 -10 -31 -10t-30 12.5t-12 32.5q0 24 22 39l66 45q31 20 53 20q18 0 32.5 -12.5t14.5 -29.5v-318q0 -18 -15 -31.5t-36 -13.5q-20 0 -34.5 13t-14.5 32v231z" />
<glyph unicode="&#xba;" horiz-adv-x="324" d="M284 574v-103q0 -47 -35 -81t-87 -34q-51 0 -86.5 34t-35.5 81v103q0 47 35.5 80.5t86.5 33.5q52 0 87 -33.5t35 -80.5zM122 574v-103q0 -16 12 -28.5t28 -12.5t28 12t12 29v103q0 16 -12 28t-28 12t-28 -12t-12 -28zM246 246h-167q-15 0 -24.5 10.5t-9.5 25.5t9.5 25 t24.5 10h167q15 0 24 -10t9 -25t-9 -25.5t-24 -10.5z" />
<glyph unicode="&#xbb;" horiz-adv-x="468" d="M246 253q0 -23 -18 -43l-131 -134q-12 -14 -28 -14t-26.5 10t-10.5 24q0 10 7 20l103 137l-103 137q-7 10 -7 20q0 14 10.5 24t26.5 10t28 -14l131 -134q18 -20 18 -43zM444 253q0 -23 -18 -43l-131 -134q-12 -14 -28 -14t-26.5 10t-10.5 24q0 10 7 20l103 137l-103 137 q-7 10 -7 20q0 14 10.5 24t26.5 10t28 -14l131 -134q18 -20 18 -43z" />
<glyph unicode="&#xbc;" horiz-adv-x="760" d="M577 620l-331 -601q-14 -24 -39 -24q-19 0 -33.5 12.5t-14.5 30.5q0 11 5 21l330 602q14 24 40 24q19 0 33.5 -13t14.5 -31q0 -13 -5 -21zM120 574l-15 -10q-13 -10 -31 -10t-30 12.5t-12 32.5q0 24 22 39l66 45q31 20 53 20q18 0 32.5 -12.5t14.5 -29.5v-318 q0 -18 -15 -31.5t-36 -13.5q-20 0 -34.5 13t-14.5 32v231zM643 -26q-41 0 -41 39v30h-122q-18 0 -30 13t-12 31q0 11 7 28l101 237v-1q12 30 45 30q19 0 31 -11.5t12 -30.5q0 -13 -4 -21q-14 -32 -41 -96.5t-39 -92.5h52v51q0 18 11.5 30t30.5 12t30.5 -12t11.5 -30v-51h11 q18 0 29 -12t11 -30t-11.5 -31t-29.5 -13h-10v-30q0 -17 -11.5 -28t-31.5 -11z" />
<glyph unicode="&#xbd;" horiz-adv-x="760" d="M569 620l-331 -601q-14 -24 -39 -24q-19 0 -33.5 12.5t-14.5 30.5q0 11 5 21l330 602q14 24 40 24q19 0 33.5 -13t14.5 -31q0 -13 -5 -21zM120 574l-15 -10q-13 -10 -31 -10t-30 12.5t-12 32.5q0 24 22 39l66 45q31 20 53 20q18 0 32.5 -12.5t14.5 -29.5v-318 q0 -18 -15 -31.5t-36 -13.5q-20 0 -34.5 13t-14.5 32v231zM583 380q57 0 93.5 -34t36.5 -85q0 -54 -47 -111l-74 -88h87q17 0 29 -13t12 -31q0 -19 -11.5 -31t-29.5 -12h-171q-19 0 -31 14.5t-12 32.5q0 26 22 53l106 128q25 30 25 58q0 13 -10 22t-24 9q-20 0 -39 -21 q-16 -16 -38 -16q-16 0 -28.5 13t-12.5 30q0 21 17 38q44 44 100 44z" />
<glyph unicode="&#xbe;" horiz-adv-x="760" d="M589 620l-331 -601q-14 -24 -39 -24q-19 0 -33.5 12.5t-14.5 30.5q0 11 5 21l330 602q14 24 40 24q19 0 33.5 -13t14.5 -31q0 -13 -5 -21zM648 -26q-41 0 -41 39v30h-122q-18 0 -30 13t-12 31q0 11 7 28l101 237v-1q12 30 45 30q19 0 31 -11.5t12 -30.5q0 -13 -4 -21 q-14 -32 -41 -96.5t-39 -92.5h52v51q0 18 11.5 30t30.5 12t30.5 -12t11.5 -30v-51h11q18 0 29 -12t11 -30t-11.5 -31t-29.5 -13h-10v-30q0 -17 -11.5 -28t-31.5 -11zM146 458h-33q-17 0 -29 12t-12 28q0 17 12 29.5t29 12.5h33q14 0 24 9.5t10 22.5v12q0 14 -10.5 23 t-23.5 9q-15 0 -37 -14q-18 -12 -35 -12q-16 0 -28 12.5t-12 29.5q0 22 19 37q42 34 93 34t88.5 -33.5t37.5 -85.5v-12q0 -21 -13 -41.5t-31 -31.5q44 -28 44 -73v-16q0 -52 -37.5 -85t-88.5 -33t-91 31q-22 18 -22 41q0 17 11.5 29t27.5 12q18 0 35 -12q22 -15 39 -15 q13 0 23.5 9t10.5 23v16q0 14 -10 23t-24 9z" />
<glyph unicode="&#xbf;" horiz-adv-x="433" d="M298 230l-1 16q0 23 -15 37.5t-41 14.5q-24 0 -39.5 -14.5t-15.5 -35.5l-1 -18q-2 -25 -18.5 -44t-39 -33.5t-44.5 -32t-37.5 -48.5t-15.5 -73q0 -84 61 -138.5t149 -54.5q38 0 77 17.5t64 40.5q26 24 26 47q0 20 -15.5 36t-35.5 16t-43 -18q-42 -31 -73 -31 q-35 0 -62.5 24t-27.5 59q0 28 16 48.5t38.5 35t45 31.5t36.5 46.5t12 71.5zM310 431q0 -30 -20 -49t-49 -19q-28 0 -48.5 19t-20.5 49t20.5 49t48.5 19q29 0 49 -19t20 -49z" />
<glyph unicode="&#xc0;" horiz-adv-x="546" d="M273 682q30 0 52 -18.5t30 -45.5l168 -550q3 -12 3 -18q0 -25 -18.5 -39.5t-48.5 -14.5q-20 0 -35 12t-20 31l-35 125h-193l-34 -125q-5 -19 -20 -31t-35 -12q-30 0 -48.5 14.5t-18.5 39.5q0 6 3 18l168 550q8 27 30 45.5t52 18.5zM273 537l-23 -107l-44 -158h133 l-43 158zM264 866l77 -89q10 -12 10 -27q0 -14 -10.5 -24t-23.5 -10q-16 0 -28 10l-97 69q-23 15 -23 39q0 22 16 37t38 15q25 0 41 -20z" />
<glyph unicode="&#xc1;" horiz-adv-x="546" d="M273 682q30 0 52 -18.5t30 -45.5l168 -550q3 -12 3 -18q0 -25 -18.5 -39.5t-48.5 -14.5q-20 0 -35 12t-20 31l-35 125h-193l-34 -125q-5 -19 -20 -31t-35 -12q-30 0 -48.5 14.5t-18.5 39.5q0 6 3 18l168 550q8 27 30 45.5t52 18.5zM273 537l-23 -107l-44 -158h133 l-43 158zM202 777l77 89q16 20 41 20q22 0 38 -15t16 -37q0 -24 -23 -39l-97 -69q-12 -10 -28 -10q-13 0 -23.5 10t-10.5 24q0 15 10 27z" />
<glyph unicode="&#xc2;" horiz-adv-x="546" d="M273 682q30 0 52 -18.5t30 -45.5l168 -550q3 -12 3 -18q0 -25 -18.5 -39.5t-48.5 -14.5q-20 0 -35 12t-20 31l-35 125h-193l-34 -125q-5 -19 -20 -31t-35 -12q-30 0 -48.5 14.5t-18.5 39.5q0 6 3 18l168 550q8 27 30 45.5t52 18.5zM273 537l-23 -107l-44 -158h133 l-43 158zM273 786l-67 -59q-11 -9 -25 -9t-25 10t-11 23q0 16 11 27l75 89q15 19 42 19t42 -19l75 -89q11 -11 11 -27q0 -13 -11 -23t-25 -10t-25 9z" />
<glyph unicode="&#xc3;" horiz-adv-x="546" d="M273 682q30 0 52 -18.5t30 -45.5l168 -550q3 -12 3 -18q0 -25 -18.5 -39.5t-48.5 -14.5q-20 0 -35 12t-20 31l-35 125h-193l-34 -125q-5 -19 -20 -31t-35 -12q-30 0 -48.5 14.5t-18.5 39.5q0 6 3 18l168 550q8 27 30 45.5t52 18.5zM273 537l-23 -107l-44 -158h133 l-43 158zM220 861q26 0 53.5 -23.5t39.5 -23.5q11 0 23 22t32 22q16 0 26.5 -10t10.5 -27q0 -38 -24 -63t-59 -25q-26 0 -53.5 23.5t-40.5 23.5q-10 0 -22 -21.5t-34 -21.5q-17 0 -27 9.5t-10 26.5q0 36 25 62t60 26z" />
<glyph unicode="&#xc4;" horiz-adv-x="546" d="M273 682q30 0 52 -18.5t30 -45.5l168 -550q3 -12 3 -18q0 -25 -18.5 -39.5t-48.5 -14.5q-20 0 -35 12t-20 31l-35 125h-193l-34 -125q-5 -19 -20 -31t-35 -12q-30 0 -48.5 14.5t-18.5 39.5q0 6 3 18l168 550q8 27 30 45.5t52 18.5zM273 537l-23 -107l-44 -158h133 l-43 158zM292 800q0 26 16.5 43t43.5 17t43.5 -17t16.5 -43q0 -27 -16.5 -43.5t-43.5 -16.5t-43.5 17t-16.5 43zM138 800q0 26 16.5 43t43.5 17q26 0 42 -17t16 -43t-16 -43t-42 -17q-27 0 -43.5 16.5t-16.5 43.5z" />
<glyph unicode="&#xc5;" horiz-adv-x="546" d="M273 682q30 0 52 -18.5t30 -45.5l168 -550q3 -12 3 -18q0 -25 -18.5 -39.5t-48.5 -14.5q-20 0 -35 12t-20 31l-35 125h-193l-34 -125q-5 -19 -20 -31t-35 -12q-30 0 -48.5 14.5t-18.5 39.5q0 6 3 18l168 550q8 27 30 45.5t52 18.5zM273 537l-23 -107l-44 -158h133 l-43 158zM171 804q0 42 29 69t73 27q43 0 73 -27t30 -69q0 -41 -30 -68t-73 -27q-44 0 -73 26.5t-29 68.5zM233 804q0 -19 11 -32t29 -13t30 13.5t12 31.5t-12 31t-30 13t-29 -12.5t-11 -31.5z" />
<glyph unicode="&#xc6;" horiz-adv-x="775" d="M367 56v112h-176l-68 -140q-15 -32 -51 -32q-25 0 -43.5 14.5t-18.5 36.5q0 14 10 34l287 559q9 17 27.5 28.5t41.5 11.5h312q23 0 36.5 -15.5t13.5 -40.5t-13.5 -40.5t-36.5 -15.5h-197v-168h164q23 0 36.5 -15.5t13.5 -40.5t-13.5 -40.5t-36.5 -15.5h-164v-176h197 q24 0 37 -15.5t13 -40.5t-13 -40.5t-37 -15.5h-263q-26 0 -42 15.5t-16 40.5zM367 528l-125 -257h125v257z" />
<glyph unicode="&#xc7;" horiz-adv-x="482" d="M211 -120q12 0 24 -7q18 -9 29 -9q12 0 19.5 6.5t7.5 17.5q0 21 -30 21q-17 0 -29 8t-12 22q0 8 3 20l10 39q-74 16 -123.5 74.5t-49.5 140.5v253q0 97 67 159.5t158 62.5q69 0 138 -44q33 -21 33 -52q0 -23 -15 -40t-40 -17q-21 0 -46 16q-35 23 -70 23q-41 0 -71 -30.5 t-30 -77.5v-253q0 -48 30 -77.5t71 -29.5q28 0 75 27q24 13 41 13q24 0 39.5 -17.5t15.5 -41.5q0 -30 -32 -51q-61 -39 -126 -43l-3 -29q26 -1 47 -19.5t21 -55.5q0 -40 -28 -65.5t-69 -25.5q-37 0 -66 18q-19 11 -19 32q0 13 9 22.5t21 9.5z" />
<glyph unicode="&#xc8;" horiz-adv-x="490" d="M74 56v568q0 25 16 40.5t42 15.5h264q24 0 38 -16t14 -40t-14 -40t-38 -16h-198v-168h165q24 0 38 -16t14 -40t-14 -40t-38 -16h-165v-176h198q24 0 38 -15.5t14 -40.5t-14 -40.5t-38 -15.5h-264q-26 0 -42 15.5t-16 40.5zM260 866l77 -89q10 -12 10 -27q0 -14 -10.5 -24 t-23.5 -10q-16 0 -28 10l-97 69q-23 15 -23 39q0 22 16 37t38 15q25 0 41 -20z" />
<glyph unicode="&#xc9;" horiz-adv-x="490" d="M74 56v568q0 25 16 40.5t42 15.5h264q24 0 38 -16t14 -40t-14 -40t-38 -16h-198v-168h165q24 0 38 -16t14 -40t-14 -40t-38 -16h-165v-176h198q24 0 38 -15.5t14 -40.5t-14 -40.5t-38 -15.5h-264q-26 0 -42 15.5t-16 40.5zM198 777l77 89q16 20 41 20q22 0 38 -15t16 -37 q0 -24 -23 -39l-97 -69q-12 -10 -28 -10q-13 0 -23.5 10t-10.5 24q0 15 10 27z" />
<glyph unicode="&#xca;" horiz-adv-x="490" d="M74 56v568q0 25 16 40.5t42 15.5h264q24 0 38 -16t14 -40t-14 -40t-38 -16h-198v-168h165q24 0 38 -16t14 -40t-14 -40t-38 -16h-165v-176h198q24 0 38 -15.5t14 -40.5t-14 -40.5t-38 -15.5h-264q-26 0 -42 15.5t-16 40.5zM269 786l-67 -59q-11 -9 -25 -9t-25 10t-11 23 q0 16 11 27l75 89q15 19 42 19t42 -19l75 -89q11 -11 11 -27q0 -13 -11 -23t-25 -10t-25 9z" />
<glyph unicode="&#xcb;" horiz-adv-x="490" d="M74 56v568q0 25 16 40.5t42 15.5h264q24 0 38 -16t14 -40t-14 -40t-38 -16h-198v-168h165q24 0 38 -16t14 -40t-14 -40t-38 -16h-165v-176h198q24 0 38 -15.5t14 -40.5t-14 -40.5t-38 -15.5h-264q-26 0 -42 15.5t-16 40.5zM288 800q0 26 16.5 43t43.5 17t43.5 -17 t16.5 -43q0 -27 -16.5 -43.5t-43.5 -16.5t-43.5 17t-16.5 43zM134 800q0 26 16.5 43t43.5 17q26 0 42 -17t16 -43t-16 -43t-42 -17q-27 0 -43.5 16.5t-16.5 43.5z" />
<glyph unicode="&#xcc;" horiz-adv-x="280" d="M202 624v-568q0 -25 -17.5 -41.5t-44.5 -16.5t-44.5 16.5t-17.5 41.5v568q0 25 17.5 41.5t44.5 16.5t44.5 -16.5t17.5 -41.5zM131 866l77 -89q10 -12 10 -27q0 -14 -10.5 -24t-23.5 -10q-16 0 -28 10l-97 69q-23 15 -23 39q0 22 16 37t38 15q25 0 41 -20z" />
<glyph unicode="&#xcd;" horiz-adv-x="280" d="M202 624v-568q0 -25 -17.5 -41.5t-44.5 -16.5t-44.5 16.5t-17.5 41.5v568q0 25 17.5 41.5t44.5 16.5t44.5 -16.5t17.5 -41.5zM69 777l77 89q16 20 41 20q22 0 38 -15t16 -37q0 -24 -23 -39l-97 -69q-12 -10 -28 -10q-13 0 -23.5 10t-10.5 24q0 15 10 27z" />
<glyph unicode="&#xce;" horiz-adv-x="280" d="M202 624v-568q0 -25 -17.5 -41.5t-44.5 -16.5t-44.5 16.5t-17.5 41.5v568q0 25 17.5 41.5t44.5 16.5t44.5 -16.5t17.5 -41.5zM140 786l-67 -59q-11 -9 -25 -9t-25 10t-11 23q0 16 11 27l75 89q15 19 42 19t42 -19l75 -89q11 -11 11 -27q0 -13 -11 -23t-25 -10t-25 9z" />
<glyph unicode="&#xcf;" horiz-adv-x="280" d="M202 624v-568q0 -25 -17.5 -41.5t-44.5 -16.5t-44.5 16.5t-17.5 41.5v568q0 25 17.5 41.5t44.5 16.5t44.5 -16.5t17.5 -41.5zM159 800q0 26 16.5 43t43.5 17t43.5 -17t16.5 -43q0 -27 -16.5 -43.5t-43.5 -16.5t-43.5 17t-16.5 43zM5 800q0 26 16.5 43t43.5 17 q26 0 42 -17t16 -43t-16 -43t-42 -17q-27 0 -43.5 16.5t-16.5 43.5z" />
<glyph unicode="&#xd0;" horiz-adv-x="573" d="M74 56v231h-14q-21 0 -35.5 15.5t-14.5 38.5q0 24 14.5 39t35.5 15h14v229q0 25 16.5 40.5t41.5 15.5h159q89 0 155.5 -59t66.5 -151v-260q0 -92 -66.5 -151t-155.5 -59h-159q-25 0 -41.5 15.5t-16.5 40.5zM198 112h93q40 0 69 29.5t29 68.5v260q0 39 -29 68.5t-69 29.5 h-93v-173h56q22 0 36 -15t14 -39q0 -23 -14 -38.5t-36 -15.5h-56v-175z" />
<glyph unicode="&#xd1;" horiz-adv-x="603" d="M529 625v-569q0 -25 -17.5 -41.5t-43.5 -16.5q-43 0 -68 46l-206 376v-364q0 -26 -16.5 -42t-43.5 -16t-43.5 16t-16.5 42v567q0 26 17 42.5t44 16.5q44 0 68 -46l206 -380v369q0 26 16.5 41.5t43.5 15.5t43.5 -15.5t16.5 -41.5zM257 861q26 0 53.5 -23.5t39.5 -23.5 q11 0 23 22t32 22q16 0 26.5 -10t10.5 -27q0 -38 -24 -63t-59 -25q-26 0 -53.5 23.5t-40.5 23.5q-7 0 -13 -6.5t-9 -15t-12 -15t-22 -6.5q-17 0 -27 9.5t-10 26.5q0 36 25 62t60 26z" />
<glyph unicode="&#xd2;" horiz-adv-x="566" d="M506 471v-262q0 -92 -66 -154.5t-157 -62.5t-157 62.5t-66 154.5v262q0 92 66 154.5t157 62.5t157 -62.5t66 -154.5zM184 471v-262q0 -42 28.5 -72.5t70.5 -30.5t70.5 30.5t28.5 72.5v262q0 42 -28.5 72.5t-70.5 30.5t-70.5 -30.5t-28.5 -72.5zM274 866l77 -89 q10 -12 10 -27q0 -14 -10.5 -24t-23.5 -10q-16 0 -28 10l-97 69q-23 15 -23 39q0 22 16 37t38 15q25 0 41 -20z" />
<glyph unicode="&#xd3;" horiz-adv-x="566" d="M506 471v-262q0 -92 -66 -154.5t-157 -62.5t-157 62.5t-66 154.5v262q0 92 66 154.5t157 62.5t157 -62.5t66 -154.5zM184 471v-262q0 -42 28.5 -72.5t70.5 -30.5t70.5 30.5t28.5 72.5v262q0 42 -28.5 72.5t-70.5 30.5t-70.5 -30.5t-28.5 -72.5zM212 777l77 89 q16 20 41 20q22 0 38 -15t16 -37q0 -24 -23 -39l-97 -69q-12 -10 -28 -10q-13 0 -23.5 10t-10.5 24q0 15 10 27z" />
<glyph unicode="&#xd4;" horiz-adv-x="566" d="M506 471v-262q0 -92 -66 -154.5t-157 -62.5t-157 62.5t-66 154.5v262q0 92 66 154.5t157 62.5t157 -62.5t66 -154.5zM184 471v-262q0 -42 28.5 -72.5t70.5 -30.5t70.5 30.5t28.5 72.5v262q0 42 -28.5 72.5t-70.5 30.5t-70.5 -30.5t-28.5 -72.5zM283 786l-67 -59 q-11 -9 -25 -9t-25 10t-11 23q0 16 11 27l75 89q15 19 42 19t42 -19l75 -89q11 -11 11 -27q0 -13 -11 -23t-25 -10t-25 9z" />
<glyph unicode="&#xd5;" horiz-adv-x="566" d="M506 471v-262q0 -92 -66 -154.5t-157 -62.5t-157 62.5t-66 154.5v262q0 92 66 154.5t157 62.5t157 -62.5t66 -154.5zM184 471v-262q0 -42 28.5 -72.5t70.5 -30.5t70.5 30.5t28.5 72.5v262q0 42 -28.5 72.5t-70.5 30.5t-70.5 -30.5t-28.5 -72.5zM230 861q26 0 53.5 -23.5 t39.5 -23.5q11 0 23 22t32 22q16 0 26.5 -10t10.5 -27q0 -38 -24 -63t-59 -25q-26 0 -53.5 23.5t-40.5 23.5q-10 0 -22 -21.5t-34 -21.5q-17 0 -27 9.5t-10 26.5q0 36 25 62t60 26z" />
<glyph unicode="&#xd6;" horiz-adv-x="566" d="M506 471v-262q0 -92 -66 -154.5t-157 -62.5t-157 62.5t-66 154.5v262q0 92 66 154.5t157 62.5t157 -62.5t66 -154.5zM184 471v-262q0 -42 28.5 -72.5t70.5 -30.5t70.5 30.5t28.5 72.5v262q0 42 -28.5 72.5t-70.5 30.5t-70.5 -30.5t-28.5 -72.5zM302 800q0 26 16.5 43 t43.5 17t43.5 -17t16.5 -43q0 -27 -16.5 -43.5t-43.5 -16.5t-43.5 17t-16.5 43zM148 800q0 26 16.5 43t43.5 17q26 0 42 -17t16 -43t-16 -43t-42 -17q-27 0 -43.5 16.5t-16.5 43.5z" />
<glyph unicode="&#xd7;" d="M366 61l-104 109l-104 -109q-17 -17 -39 -17q-20 0 -36 16t-16 35t17 38l106 112l-109 115q-14 16 -14 35q0 20 16 35.5t36 15.5q23 0 39 -16l104 -110l104 110q16 16 39 16q20 0 36 -15.5t16 -35.5q0 -19 -14 -35l-110 -115l107 -112q17 -19 17 -38t-16 -35t-36 -16 q-25 0 -39 17z" />
<glyph unicode="&#xd8;" horiz-adv-x="566" d="M506 471v-262q0 -92 -66 -154.5t-157 -62.5q-48 0 -92 19l-10 -27q-8 -22 -29 -22q-14 0 -24 8.5t-10 21.5q0 9 3 16l14 37q-75 64 -75 164v262q0 92 66 154.5t157 62.5q46 0 90 -19l11 28q8 22 29 22q14 0 24 -8.5t10 -21.5q0 -7 -3 -14l-15 -39q77 -64 77 -165z M382 471q0 13 -5 30l-145 -381q23 -14 51 -14q42 0 70.5 30.5t28.5 72.5v262zM184 471v-262q0 -15 3 -27l145 379q-24 13 -49 13q-42 0 -70.5 -30.5t-28.5 -72.5z" />
<glyph unicode="&#xd9;" horiz-adv-x="586" d="M392 206v418q0 25 17.5 41.5t44.5 16.5t44.5 -16.5t17.5 -41.5v-418q0 -91 -66 -152.5t-157 -61.5t-157 61.5t-66 152.5v418q0 25 17.5 41.5t44.5 16.5t44.5 -16.5t17.5 -41.5v-418q0 -41 29 -70.5t70 -29.5t70 29.5t29 70.5zM284 866l77 -89q10 -12 10 -27 q0 -14 -10.5 -24t-23.5 -10q-16 0 -28 10l-97 69q-23 15 -23 39q0 22 16 37t38 15q25 0 41 -20z" />
<glyph unicode="&#xda;" horiz-adv-x="586" d="M392 206v418q0 25 17.5 41.5t44.5 16.5t44.5 -16.5t17.5 -41.5v-418q0 -91 -66 -152.5t-157 -61.5t-157 61.5t-66 152.5v418q0 25 17.5 41.5t44.5 16.5t44.5 -16.5t17.5 -41.5v-418q0 -41 29 -70.5t70 -29.5t70 29.5t29 70.5zM222 777l77 89q16 20 41 20q22 0 38 -15 t16 -37q0 -24 -23 -39l-97 -69q-12 -10 -28 -10q-13 0 -23.5 10t-10.5 24q0 15 10 27z" />
<glyph unicode="&#xdb;" horiz-adv-x="586" d="M392 206v418q0 25 17.5 41.5t44.5 16.5t44.5 -16.5t17.5 -41.5v-418q0 -91 -66 -152.5t-157 -61.5t-157 61.5t-66 152.5v418q0 25 17.5 41.5t44.5 16.5t44.5 -16.5t17.5 -41.5v-418q0 -41 29 -70.5t70 -29.5t70 29.5t29 70.5zM293 786l-67 -59q-11 -9 -25 -9t-25 10 t-11 23q0 16 11 27l75 89q15 19 42 19t42 -19l75 -89q11 -11 11 -27q0 -13 -11 -23t-25 -10t-25 9z" />
<glyph unicode="&#xdc;" horiz-adv-x="586" d="M392 206v418q0 25 17.5 41.5t44.5 16.5t44.5 -16.5t17.5 -41.5v-418q0 -91 -66 -152.5t-157 -61.5t-157 61.5t-66 152.5v418q0 25 17.5 41.5t44.5 16.5t44.5 -16.5t17.5 -41.5v-418q0 -41 29 -70.5t70 -29.5t70 29.5t29 70.5zM312 800q0 26 16.5 43t43.5 17t43.5 -17 t16.5 -43q0 -27 -16.5 -43.5t-43.5 -16.5t-43.5 17t-16.5 43zM158 800q0 26 16.5 43t43.5 17q26 0 42 -17t16 -43t-16 -43t-42 -17q-27 0 -43.5 16.5t-16.5 43.5z" />
<glyph unicode="&#xdd;" horiz-adv-x="529" d="M327 289v-239q0 -25 -17 -39.5t-44 -14.5q-29 0 -46 14.5t-17 39.5v239l-175 301q-10 18 -10 33q0 25 19 42t45 17q38 0 56 -35l127 -239l127 239q18 35 56 35q26 0 45 -17t19 -42q0 -15 -10 -33zM194 777l77 89q16 20 41 20q22 0 38 -15t16 -37q0 -24 -23 -39l-97 -69 q-12 -10 -28 -10q-13 0 -23.5 10t-10.5 24q0 15 10 27z" />
<glyph unicode="&#xde;" horiz-adv-x="514" d="M191 140v-89q0 -23 -17.5 -39t-44.5 -16q-26 0 -44 16t-18 39v577q0 24 18 40t44 16q27 0 44.5 -16t17.5 -40v-80h79q93 0 157.5 -52.5t64.5 -151.5t-63.5 -151.5t-159.5 -52.5h-78zM366 344q0 44 -27 69t-70 25h-78v-188h78q44 0 70.5 25t26.5 69z" />
<glyph unicode="&#xdf;" horiz-adv-x="531" d="M261 10q-14 6 -25 20.5t-11 31.5q0 23 15 37.5t38 14.5q10 0 28.5 -6.5t29.5 -6.5q19 0 32 14t13 34q0 23 -14 40.5t-33.5 31t-39.5 28.5t-34 40t-14 59q0 33 19 63.5t38.5 55.5t19.5 42q0 31 -20 51t-49 20q-31 0 -52.5 -23t-21.5 -58v-446q0 -22 -18 -39t-44 -17 t-44 17t-18 39v446q0 77 59.5 133t138.5 56t135 -53t56 -126q0 -30 -11.5 -55t-26 -39t-26 -32t-11.5 -35q0 -20 14 -37t33.5 -30.5t39.5 -29.5t34 -42t14 -60q0 -69 -47.5 -111.5t-121.5 -42.5q-40 0 -75 15z" />
<glyph unicode="&#xe0;" horiz-adv-x="474" d="M224 503q80 0 135 -51t55 -130v-282q0 -18 -13 -31t-34 -13q-18 0 -39 17.5t-31 17.5q-9 0 -25 -10q-42 -27 -75 -27q-68 0 -112.5 45.5t-44.5 115.5q0 74 54 109.5t130 35.5h70v22q0 31 -20.5 51t-49.5 20q-26 0 -62 -15q-25 -11 -42 -11q-20 0 -35 14.5t-15 35.5 q0 37 39 56q60 30 115 30zM157 159q0 -23 18.5 -40t47.5 -17q30 0 51 17.5t20 43.5v53h-73q-28 0 -46 -15.5t-18 -41.5zM215 711l77 -89q10 -12 10 -27q0 -14 -10.5 -24t-23.5 -10q-16 0 -28 10l-97 69q-23 15 -23 39q0 22 16 37t38 15q25 0 41 -20z" />
<glyph unicode="&#xe1;" horiz-adv-x="474" d="M224 503q80 0 135 -51t55 -130v-282q0 -18 -13 -31t-34 -13q-18 0 -39 17.5t-31 17.5q-9 0 -25 -10q-42 -27 -75 -27q-68 0 -112.5 45.5t-44.5 115.5q0 74 54 109.5t130 35.5h70v22q0 31 -20.5 51t-49.5 20q-26 0 -62 -15q-25 -11 -42 -11q-20 0 -35 14.5t-15 35.5 q0 37 39 56q60 30 115 30zM157 159q0 -23 18.5 -40t47.5 -17q30 0 51 17.5t20 43.5v53h-73q-28 0 -46 -15.5t-18 -41.5zM155 622l77 89q16 20 41 20q22 0 38 -15t16 -37q0 -24 -23 -39l-97 -69q-12 -10 -28 -10q-13 0 -23.5 10t-10.5 24q0 15 10 27z" />
<glyph unicode="&#xe2;" horiz-adv-x="474" d="M224 503q80 0 135 -51t55 -130v-282q0 -18 -13 -31t-34 -13q-18 0 -39 17.5t-31 17.5q-9 0 -25 -10q-42 -27 -75 -27q-68 0 -112.5 45.5t-44.5 115.5q0 74 54 109.5t130 35.5h70v22q0 31 -20.5 51t-49.5 20q-26 0 -62 -15q-25 -11 -42 -11q-20 0 -35 14.5t-15 35.5 q0 37 39 56q60 30 115 30zM157 159q0 -23 18.5 -40t47.5 -17q30 0 51 17.5t20 43.5v53h-73q-28 0 -46 -15.5t-18 -41.5zM224 631l-67 -59q-11 -9 -25 -9t-25 10t-11 23q0 16 11 27l75 89q15 19 42 19t42 -19l75 -89q11 -11 11 -27q0 -13 -11 -23t-25 -10t-25 9z" />
<glyph unicode="&#xe3;" horiz-adv-x="474" d="M224 503q80 0 135 -51t55 -130v-282q0 -18 -13 -31t-34 -13q-18 0 -39 17.5t-31 17.5q-9 0 -25 -10q-42 -27 -75 -27q-68 0 -112.5 45.5t-44.5 115.5q0 74 54 109.5t130 35.5h70v22q0 31 -20.5 51t-49.5 20q-26 0 -62 -15q-25 -11 -42 -11q-20 0 -35 14.5t-15 35.5 q0 37 39 56q60 30 115 30zM157 159q0 -23 18.5 -40t47.5 -17q30 0 51 17.5t20 43.5v53h-73q-28 0 -46 -15.5t-18 -41.5zM173 706q26 0 53.5 -23.5t39.5 -23.5q11 0 23 22t32 22q16 0 26.5 -10t10.5 -27q0 -38 -24 -63t-59 -25q-26 0 -53.5 23.5t-40.5 23.5q-9 0 -15 -10.5 t-15 -21.5t-26 -11t-27 9.5t-10 26.5q0 36 25 62t60 26z" />
<glyph unicode="&#xe4;" horiz-adv-x="474" d="M224 503q80 0 135 -51t55 -130v-282q0 -18 -13 -31t-34 -13q-18 0 -39 17.5t-31 17.5q-9 0 -25 -10q-42 -27 -75 -27q-68 0 -112.5 45.5t-44.5 115.5q0 74 54 109.5t130 35.5h70v22q0 31 -20.5 51t-49.5 20q-26 0 -62 -15q-25 -11 -42 -11q-20 0 -35 14.5t-15 35.5 q0 37 39 56q60 30 115 30zM157 159q0 -23 18.5 -40t47.5 -17q30 0 51 17.5t20 43.5v53h-73q-28 0 -46 -15.5t-18 -41.5zM243 645q0 26 16.5 43t43.5 17t43.5 -17t16.5 -43q0 -27 -16.5 -43.5t-43.5 -16.5t-43.5 17t-16.5 43zM89 645q0 26 16.5 43t43.5 17q26 0 42 -17 t16 -43t-16 -43t-42 -17q-27 0 -43.5 16.5t-16.5 43.5z" />
<glyph unicode="&#xe5;" horiz-adv-x="474" d="M224 503q80 0 135 -51t55 -130v-282q0 -18 -13 -31t-34 -13q-18 0 -39 17.5t-31 17.5q-9 0 -25 -10q-42 -27 -75 -27q-68 0 -112.5 45.5t-44.5 115.5q0 74 54 109.5t130 35.5h70v22q0 31 -20.5 51t-49.5 20q-26 0 -62 -15q-25 -11 -42 -11q-20 0 -35 14.5t-15 35.5 q0 37 39 56q60 30 115 30zM157 159q0 -23 18.5 -40t47.5 -17q30 0 51 17.5t20 43.5v53h-73q-28 0 -46 -15.5t-18 -41.5zM122 649q0 42 29 69t73 27q43 0 73 -27t30 -69q0 -41 -30 -68t-73 -27q-44 0 -73 26.5t-29 68.5zM184 649q0 -19 11 -32t29 -13t30 13.5t12 31.5t-12 31 t-30 13t-29 -12.5t-11 -31.5z" />
<glyph unicode="&#xe6;" horiz-adv-x="709" d="M222 503q79 0 134 -52q57 52 127 52q75 0 130.5 -53.5t55.5 -127.5v-51q0 -23 -18.5 -43t-43.5 -20h-194v-34q0 -32 22.5 -52t50.5 -20q35 0 72 20q24 13 38 13q23 0 37.5 -16.5t14.5 -38.5q0 -33 -37 -55q-55 -33 -125 -33q-86 0 -139 64q-51 -62 -140 -62 q-72 0 -120 45t-48 115q0 76 55 111.5t132 35.5h67v24q0 29 -21.5 48.5t-49.5 19.5q-30 0 -63 -14q-25 -11 -42 -11q-20 0 -35 14.5t-15 35.5q0 36 39 56q58 29 116 29zM156 159q0 -23 18.5 -40t47.5 -17q30 0 50.5 18t20.5 45v52h-68q-30 0 -49.5 -16t-19.5 -42zM413 322 v-26h140v26q0 29 -21 50t-49 21t-49 -19.5t-21 -51.5z" />
<glyph unicode="&#xe7;" horiz-adv-x="405" d="M175 -120q12 0 24 -7q18 -9 29 -9q12 0 19.5 6.5t7.5 17.5q0 21 -30 21q-17 0 -29 8t-12 22q0 8 3 20l12 38q-62 13 -104.5 61t-42.5 117v146q0 80 57.5 131t133.5 51q50 0 100 -27q35 -19 35 -53q0 -21 -15.5 -37t-36.5 -16q-15 0 -35 10q-26 13 -48 13q-27 0 -49 -20.5 t-22 -51.5v-146q0 -32 22 -52.5t49 -20.5q24 0 54 17q18 10 34 10q22 0 37 -15.5t15 -38.5q0 -32 -34 -53q-38 -23 -85 -29l-5 -29q26 -1 47 -19.5t21 -55.5q0 -40 -28 -65.5t-69 -25.5q-37 0 -66 18q-19 11 -19 32q0 13 9 22.5t21 9.5z" />
<glyph unicode="&#xe8;" horiz-adv-x="470" d="M245 -8q-77 0 -135 52t-58 129v149q0 76 56.5 128.5t133.5 52.5q75 0 130.5 -53.5t55.5 -127.5v-51q0 -23 -18.5 -43t-43.5 -20h-194v-34q0 -32 22.5 -52t50.5 -20q35 0 72 20q24 13 38 13q23 0 37.5 -16.5t14.5 -38.5q0 -33 -37 -55q-55 -33 -125 -33zM172 322v-26h140 v26q0 29 -21 50t-49 21t-49 -20.5t-21 -50.5zM233 711l77 -89q10 -12 10 -27q0 -14 -10.5 -24t-23.5 -10q-16 0 -28 10l-97 69q-23 15 -23 39q0 22 16 37t38 15q25 0 41 -20z" />
<glyph unicode="&#xe9;" horiz-adv-x="470" d="M245 -8q-77 0 -135 52t-58 129v149q0 76 56.5 128.5t133.5 52.5q75 0 130.5 -53.5t55.5 -127.5v-51q0 -23 -18.5 -43t-43.5 -20h-194v-34q0 -32 22.5 -52t50.5 -20q35 0 72 20q24 13 38 13q23 0 37.5 -16.5t14.5 -38.5q0 -33 -37 -55q-55 -33 -125 -33zM172 322v-26h140 v26q0 29 -21 50t-49 21t-49 -20.5t-21 -50.5zM173 622l77 89q16 20 41 20q22 0 38 -15t16 -37q0 -24 -23 -39l-97 -69q-12 -10 -28 -10q-13 0 -23.5 10t-10.5 24q0 15 10 27z" />
<glyph unicode="&#xea;" horiz-adv-x="470" d="M245 -8q-77 0 -135 52t-58 129v149q0 76 56.5 128.5t133.5 52.5q75 0 130.5 -53.5t55.5 -127.5v-51q0 -23 -18.5 -43t-43.5 -20h-194v-34q0 -32 22.5 -52t50.5 -20q35 0 72 20q24 13 38 13q23 0 37.5 -16.5t14.5 -38.5q0 -33 -37 -55q-55 -33 -125 -33zM172 322v-26h140 v26q0 29 -21 50t-49 21t-49 -20.5t-21 -50.5zM242 631l-67 -59q-11 -9 -25 -9t-25 10t-11 23q0 16 11 27l75 89q15 19 42 19t42 -19l75 -89q11 -11 11 -27q0 -13 -11 -23t-25 -10t-25 9z" />
<glyph unicode="&#xeb;" horiz-adv-x="470" d="M245 -8q-77 0 -135 52t-58 129v149q0 76 56.5 128.5t133.5 52.5q75 0 130.5 -53.5t55.5 -127.5v-51q0 -23 -18.5 -43t-43.5 -20h-194v-34q0 -32 22.5 -52t50.5 -20q35 0 72 20q24 13 38 13q23 0 37.5 -16.5t14.5 -38.5q0 -33 -37 -55q-55 -33 -125 -33zM172 322v-26h140 v26q0 29 -21 50t-49 21t-49 -20.5t-21 -50.5zM261 645q0 26 16.5 43t43.5 17t43.5 -17t16.5 -43q0 -27 -16.5 -43.5t-43.5 -16.5t-43.5 17t-16.5 43zM107 645q0 26 16.5 43t43.5 17q26 0 42 -17t16 -43t-16 -43t-42 -17q-27 0 -43.5 16.5t-16.5 43.5z" />
<glyph unicode="&#xec;" horiz-adv-x="252" d="M117 711l77 -89q10 -12 10 -27q0 -14 -10.5 -24t-23.5 -10q-16 0 -28 10l-97 69q-23 15 -23 39q0 22 16 37t38 15q25 0 41 -20zM186 441v-387q0 -23 -17 -39.5t-43 -16.5t-43 16t-17 40v387q0 24 17 40t43 16t43 -16.5t17 -39.5z" />
<glyph unicode="&#xed;" horiz-adv-x="252" d="M57 622l77 89q16 20 41 20q22 0 38 -15t16 -37q0 -24 -23 -39l-97 -69q-12 -10 -28 -10q-13 0 -23.5 10t-10.5 24q0 15 10 27zM186 441v-387q0 -23 -17 -39.5t-43 -16.5t-43 16t-17 40v387q0 24 17 40t43 16t43 -16.5t17 -39.5z" />
<glyph unicode="&#xee;" horiz-adv-x="252" d="M186 441v-387q0 -23 -17 -39.5t-43 -16.5t-43 16t-17 40v387q0 24 17 40t43 16t43 -16.5t17 -39.5zM126 631l-67 -59q-11 -9 -25 -9t-25 10t-11 23q0 16 11 27l75 89q15 19 42 19t42 -19l75 -89q11 -11 11 -27q0 -13 -11 -23t-25 -10t-25 9z" />
<glyph unicode="&#xef;" horiz-adv-x="252" d="M145 645q0 26 16.5 43t43.5 17t43.5 -17t16.5 -43q0 -27 -16.5 -43.5t-43.5 -16.5t-43.5 17t-16.5 43zM-9 645q0 26 16.5 43t43.5 17q26 0 42 -17t16 -43t-16 -43t-42 -17q-27 0 -43.5 16.5t-16.5 43.5zM186 441v-387q0 -23 -17 -39.5t-43 -16.5t-43 16t-17 40v387 q0 24 17 40t43 16t43 -16.5t17 -39.5z" />
<glyph unicode="&#xf0;" horiz-adv-x="496" d="M422 640l-48 -32q63 -78 63 -178v-254q0 -81 -58 -132.5t-134 -51.5t-134 51.5t-58 132.5v102q0 82 52.5 133t123.5 51q27 0 55 -14q5 -3 11 -6.5t9 -5.5t5 -2q8 0 8 11v4q0 57 -35 97l-50 -34q-8 -8 -23.5 -6.5t-26.5 14.5q-8 11 -5.5 26.5t12.5 21.5l34 23 q-18 9 -46 21t-39.5 32.5t-2.5 40.5q10 23 33 31t51 -1q59 -20 103 -56l54 37q10 8 26 7t24 -13q9 -11 8.5 -25.5t-12.5 -24.5zM173 278v-102q0 -31 21 -52.5t51 -21.5q29 0 50.5 21.5t21.5 52.5v102q0 31 -21 52.5t-51 21.5t-51 -21.5t-21 -52.5z" />
<glyph unicode="&#xf1;" horiz-adv-x="510" d="M66 54v396q0 21 15 34t36 13q20 0 38 -17.5t28 -17.5q8 0 44 20.5t70 20.5q62 0 106.5 -50t44.5 -129v-270q0 -23 -17 -39.5t-43 -16.5t-43 16t-17 40v268q0 32 -20.5 51.5t-50.5 19.5q-31 0 -51 -19t-20 -52v-268q0 -23 -17 -39.5t-43 -16.5t-43 16t-17 40zM202 706 q26 0 53.5 -23.5t39.5 -23.5q11 0 23 22t32 22q16 0 26.5 -10t10.5 -27q0 -38 -24 -63t-59 -25q-26 0 -53.5 23.5t-40.5 23.5q-10 0 -22 -21.5t-34 -21.5q-17 0 -27 9.5t-10 26.5q0 36 25 62t60 26z" />
<glyph unicode="&#xf2;" horiz-adv-x="488" d="M436 319v-143q0 -81 -58 -132.5t-134 -51.5t-134 51.5t-58 132.5v143q0 81 58 132.5t134 51.5t134 -51.5t58 -132.5zM172 319v-143q0 -31 21 -52.5t51 -21.5q29 0 50.5 21.5t21.5 52.5v143q0 31 -21 52.5t-51 21.5t-51 -21.5t-21 -52.5zM235 711l77 -89q10 -12 10 -27 q0 -14 -10.5 -24t-23.5 -10q-16 0 -28 10l-97 69q-23 15 -23 39q0 22 16 37t38 15q25 0 41 -20z" />
<glyph unicode="&#xf3;" horiz-adv-x="488" d="M436 319v-143q0 -81 -58 -132.5t-134 -51.5t-134 51.5t-58 132.5v143q0 81 58 132.5t134 51.5t134 -51.5t58 -132.5zM172 319v-143q0 -31 21 -52.5t51 -21.5q29 0 50.5 21.5t21.5 52.5v143q0 31 -21 52.5t-51 21.5t-51 -21.5t-21 -52.5zM175 622l77 89q16 20 41 20 q22 0 38 -15t16 -37q0 -24 -23 -39l-97 -69q-12 -10 -28 -10q-13 0 -23.5 10t-10.5 24q0 15 10 27z" />
<glyph unicode="&#xf4;" horiz-adv-x="488" d="M436 319v-143q0 -81 -58 -132.5t-134 -51.5t-134 51.5t-58 132.5v143q0 81 58 132.5t134 51.5t134 -51.5t58 -132.5zM172 319v-143q0 -31 21 -52.5t51 -21.5q29 0 50.5 21.5t21.5 52.5v143q0 31 -21 52.5t-51 21.5t-51 -21.5t-21 -52.5zM244 631l-67 -59q-11 -9 -25 -9 t-25 10t-11 23q0 16 11 27l75 89q15 19 42 19t42 -19l75 -89q11 -11 11 -27q0 -13 -11 -23t-25 -10t-25 9z" />
<glyph unicode="&#xf5;" horiz-adv-x="488" d="M436 319v-143q0 -81 -58 -132.5t-134 -51.5t-134 51.5t-58 132.5v143q0 81 58 132.5t134 51.5t134 -51.5t58 -132.5zM172 319v-143q0 -31 21 -52.5t51 -21.5q29 0 50.5 21.5t21.5 52.5v143q0 31 -21 52.5t-51 21.5t-51 -21.5t-21 -52.5zM191 706q26 0 53.5 -23.5 t39.5 -23.5q11 0 23 22t32 22q16 0 26.5 -10t10.5 -27q0 -38 -24 -63t-59 -25q-26 0 -53.5 23.5t-40.5 23.5q-9 0 -15 -10.5t-15 -21.5t-26 -11t-27 9.5t-10 26.5q0 36 25 62t60 26z" />
<glyph unicode="&#xf6;" horiz-adv-x="488" d="M436 319v-143q0 -81 -58 -132.5t-134 -51.5t-134 51.5t-58 132.5v143q0 81 58 132.5t134 51.5t134 -51.5t58 -132.5zM172 319v-143q0 -31 21 -52.5t51 -21.5q29 0 50.5 21.5t21.5 52.5v143q0 31 -21 52.5t-51 21.5t-51 -21.5t-21 -52.5zM263 645q0 26 16.5 43t43.5 17 t43.5 -17t16.5 -43q0 -27 -16.5 -43.5t-43.5 -16.5t-43.5 17t-16.5 43zM109 645q0 26 16.5 43t43.5 17q26 0 42 -17t16 -43t-16 -43t-42 -17q-27 0 -43.5 16.5t-16.5 43.5z" />
<glyph unicode="&#xf7;" d="M199 419q0 28 18.5 46t45.5 18t45.5 -18t18.5 -46q0 -27 -18.5 -45.5t-45.5 -18.5t-45.5 18.5t-18.5 45.5zM199 85q0 27 18.5 45.5t45.5 18.5t45.5 -18.5t18.5 -45.5q0 -28 -18.5 -46t-45.5 -18t-45.5 18t-18.5 46zM429 196h-334q-21 0 -35.5 16t-14.5 38t14.5 38 t35.5 16h334q21 0 35.5 -16t14.5 -38t-14.5 -38t-35.5 -16z" />
<glyph unicode="&#xf8;" horiz-adv-x="461" d="M434 319v-143q0 -81 -58 -132.5t-134 -51.5q-32 0 -67 11l-9 -23q-8 -21 -26 -21q-13 0 -22.5 8t-9.5 20q0 8 3 14l12 30q-73 54 -73 145v143q0 81 58 132.5t134 51.5q34 0 66 -12l10 24q8 20 26 20q14 0 23 -8t9 -20q0 -5 -3 -13l-12 -31q73 -54 73 -144zM314 319 q0 11 -3 21l-94 -234q11 -4 25 -4q29 0 50.5 21.5t21.5 52.5v143zM170 319v-143q0 -12 3 -21l94 233q-13 5 -25 5q-30 0 -51 -21.5t-21 -52.5z" />
<glyph unicode="&#xf9;" horiz-adv-x="510" d="M182 174q0 -34 19 -53t51 -19q30 0 51 19.5t21 52.5v267q0 24 17 40t43 16t43 -16.5t17 -39.5v-396q0 -21 -13.5 -34t-32.5 -13q-23 0 -38 14q-25 22 -33 22q-7 0 -36 -16q-42 -26 -74 -26q-64 0 -109.5 51.5t-45.5 127.5v270q0 24 17 40t43 16t43 -16.5t17 -39.5v-267z M243 711l77 -89q10 -12 10 -27q0 -14 -10.5 -24t-23.5 -10q-16 0 -28 10l-97 69q-23 15 -23 39q0 22 16 37t38 15q25 0 41 -20z" />
<glyph unicode="&#xfa;" horiz-adv-x="510" d="M182 174q0 -34 19 -53t51 -19q30 0 51 19.5t21 52.5v267q0 24 17 40t43 16t43 -16.5t17 -39.5v-396q0 -21 -13.5 -34t-32.5 -13q-23 0 -38 14q-25 22 -33 22q-7 0 -36 -16q-42 -26 -74 -26q-64 0 -109.5 51.5t-45.5 127.5v270q0 24 17 40t43 16t43 -16.5t17 -39.5v-267z M183 622l77 89q16 20 41 20q22 0 38 -15t16 -37q0 -24 -23 -39l-97 -69q-12 -10 -28 -10q-13 0 -23.5 10t-10.5 24q0 15 10 27z" />
<glyph unicode="&#xfb;" horiz-adv-x="510" d="M182 174q0 -34 19 -53t51 -19q30 0 51 19.5t21 52.5v267q0 24 17 40t43 16t43 -16.5t17 -39.5v-396q0 -21 -13.5 -34t-32.5 -13q-23 0 -38 14q-25 22 -33 22q-7 0 -36 -16q-42 -26 -74 -26q-64 0 -109.5 51.5t-45.5 127.5v270q0 24 17 40t43 16t43 -16.5t17 -39.5v-267z M252 631l-67 -59q-11 -9 -25 -9t-25 10t-11 23q0 16 11 27l75 89q15 19 42 19t42 -19l75 -89q11 -11 11 -27q0 -13 -11 -23t-25 -10t-25 9z" />
<glyph unicode="&#xfc;" horiz-adv-x="510" d="M182 174q0 -34 19 -53t51 -19q30 0 51 19.5t21 52.5v267q0 24 17 40t43 16t43 -16.5t17 -39.5v-396q0 -21 -13.5 -34t-32.5 -13q-23 0 -38 14q-25 22 -33 22q-7 0 -36 -16q-42 -26 -74 -26q-64 0 -109.5 51.5t-45.5 127.5v270q0 24 17 40t43 16t43 -16.5t17 -39.5v-267z M271 645q0 26 16.5 43t43.5 17t43.5 -17t16.5 -43q0 -27 -16.5 -43.5t-43.5 -16.5t-43.5 17t-16.5 43zM117 645q0 26 16.5 43t43.5 17q26 0 42 -17t16 -43t-16 -43t-42 -17q-27 0 -43.5 16.5t-16.5 43.5z" />
<glyph unicode="&#xfd;" horiz-adv-x="454" d="M242 211l70 245q11 42 58 42q25 0 43.5 -15.5t18.5 -38.5q0 -8 -3 -20l-165 -478q-20 -58 -60 -99t-91 -41q-28 0 -44 14t-16 40q0 43 44 58q33 11 53 64l14 38l-139 404q-3 9 -3 18q0 24 18 40t48 16q43 0 54 -42l70 -245l14 -56h2zM158 622l77 89q16 20 41 20 q22 0 38 -15t16 -37q0 -24 -23 -39l-97 -69q-12 -10 -28 -10q-13 0 -23.5 10t-10.5 24q0 15 10 27z" />
<glyph unicode="&#xfe;" horiz-adv-x="502" d="M450 322v-148q0 -76 -49 -129t-117 -53q-24 0 -63 17q-20 9 -23 9q-12 0 -12 -8v-148q0 -23 -17 -39.5t-43 -16.5t-43 16t-17 40v796q0 23 17.5 39.5t42.5 16.5q26 0 43 -16t17 -40v-177q0 -10 12 -10l31 16q31 16 58 16q68 0 115.5 -53t47.5 -128zM186 321v-147 q0 -31 20.5 -51.5t51.5 -20.5q30 0 51 20.5t21 51.5v147q0 32 -21 52t-51 20t-51 -20t-21 -52z" />
<glyph unicode="&#xff;" horiz-adv-x="454" d="M242 211l70 245q11 42 58 42q25 0 43.5 -15.5t18.5 -38.5q0 -8 -3 -20l-165 -478q-20 -58 -60 -99t-91 -41q-28 0 -44 14t-16 40q0 43 44 58q33 11 53 64l14 38l-139 404q-3 9 -3 18q0 24 18 40t48 16q43 0 54 -42l70 -245l14 -56h2zM246 645q0 26 16.5 43t43.5 17 t43.5 -17t16.5 -43q0 -27 -16.5 -43.5t-43.5 -16.5t-43.5 17t-16.5 43zM92 645q0 26 16.5 43t43.5 17q26 0 42 -17t16 -43t-16 -43t-42 -17q-27 0 -43.5 16.5t-16.5 43.5z" />
<glyph unicode="&#x152;" horiz-adv-x="779" d="M278 680h413q23 0 36.5 -15.5t13.5 -40.5t-13.5 -40.5t-36.5 -15.5h-198v-168h165q23 0 36.5 -15.5t13.5 -40.5t-13.5 -40.5t-36.5 -15.5h-165v-176h198q24 0 37 -15.5t13 -40.5t-13 -40.5t-37 -15.5h-413q-89 0 -155.5 59t-66.5 151v260q0 92 66.5 151t155.5 59z M278 112h89v456h-89q-40 0 -69 -29.5t-29 -68.5v-260q0 -39 29 -68.5t69 -29.5z" />
<glyph unicode="&#x153;" horiz-adv-x="728" d="M505 -8q-80 0 -133 55q-53 -55 -131 -55q-76 0 -133.5 51.5t-57.5 132.5v143q0 81 57.5 132.5t133.5 51.5q77 0 130 -56q53 56 131 56q75 0 130.5 -53.5t55.5 -127.5v-51q0 -23 -18.5 -43t-43.5 -20h-194v-34q0 -32 22.5 -52t50.5 -20q35 0 72 20q24 13 38 13 q23 0 37.5 -16.5t14.5 -38.5q0 -33 -37 -55q-55 -33 -125 -33zM170 319v-143q0 -31 21 -52.5t50 -21.5t50 21.5t21 52.5v143q0 31 -21 52.5t-50 21.5t-50 -21.5t-21 -52.5zM432 322v-26h140v26q0 29 -21 50t-49 21t-49 -20.5t-21 -50.5z" />
<glyph unicode="&#x178;" horiz-adv-x="529" d="M327 289v-239q0 -25 -17 -39.5t-44 -14.5q-29 0 -46 14.5t-17 39.5v239l-175 301q-10 18 -10 33q0 25 19 42t45 17q38 0 56 -35l127 -239l127 239q18 35 56 35q26 0 45 -17t19 -42q0 -15 -10 -33zM284 800q0 26 16.5 43t43.5 17t43.5 -17t16.5 -43q0 -27 -16.5 -43.5 t-43.5 -16.5t-43.5 17t-16.5 43zM130 800q0 26 16.5 43t43.5 17q26 0 42 -17t16 -43t-16 -43t-42 -17q-27 0 -43.5 16.5t-16.5 43.5z" />
<glyph unicode="&#x2c6;" horiz-adv-x="296" d="M148 631l-67 -59q-11 -9 -25 -9t-25 10t-11 23q0 16 11 27l75 89q15 19 42 19t42 -19l75 -89q11 -11 11 -27q0 -13 -11 -23t-25 -10t-25 9z" />
<glyph unicode="&#x2dc;" horiz-adv-x="310" d="M105 706q26 0 53.5 -23.5t39.5 -23.5q11 0 23 22t32 22q16 0 26.5 -10t10.5 -27q0 -38 -24 -63t-59 -25q-26 0 -53.5 23.5t-40.5 23.5q-9 0 -15 -10.5t-15 -21.5t-26 -11t-27 9.5t-10 26.5q0 36 25 62t60 26z" />
<glyph unicode="&#x2000;" horiz-adv-x="450" />
<glyph unicode="&#x2001;" horiz-adv-x="900" />
<glyph unicode="&#x2002;" horiz-adv-x="450" />
<glyph unicode="&#x2003;" horiz-adv-x="900" />
<glyph unicode="&#x2004;" horiz-adv-x="300" />
<glyph unicode="&#x2005;" horiz-adv-x="225" />
<glyph unicode="&#x2006;" horiz-adv-x="150" />
<glyph unicode="&#x2007;" horiz-adv-x="150" />
<glyph unicode="&#x2008;" horiz-adv-x="112" />
<glyph unicode="&#x2009;" horiz-adv-x="180" />
<glyph unicode="&#x200a;" horiz-adv-x="50" />
<glyph unicode="&#x2010;" horiz-adv-x="328" d="M250 196h-170q-21 0 -35.5 15.5t-14.5 38.5q0 24 14.5 39t35.5 15h170q22 0 36 -15t14 -39q0 -23 -14 -38.5t-36 -15.5z" />
<glyph unicode="&#x2011;" horiz-adv-x="328" d="M250 196h-170q-21 0 -35.5 15.5t-14.5 38.5q0 24 14.5 39t35.5 15h170q22 0 36 -15t14 -39q0 -23 -14 -38.5t-36 -15.5z" />
<glyph unicode="&#x2012;" horiz-adv-x="328" d="M250 196h-170q-21 0 -35.5 15.5t-14.5 38.5q0 24 14.5 39t35.5 15h170q22 0 36 -15t14 -39q0 -23 -14 -38.5t-36 -15.5z" />
<glyph unicode="&#x2013;" horiz-adv-x="500" d="M426 198h-352q-21 0 -35.5 15.5t-14.5 38.5q0 24 14.5 39t35.5 15h352q22 0 36 -15t14 -39q0 -23 -14 -38.5t-36 -15.5z" />
<glyph unicode="&#x2014;" horiz-adv-x="1000" d="M926 198h-852q-21 0 -35.5 15.5t-14.5 38.5q0 24 14.5 39t35.5 15h852q22 0 36 -15t14 -39q0 -23 -14 -38.5t-36 -15.5z" />
<glyph unicode="&#x2018;" horiz-adv-x="204" d="M106 700q16 16 36 16q14 0 23 -10t9 -24q0 -12 -15.5 -33.5t-15.5 -35.5q0 -9 9.5 -25t9.5 -28q0 -27 -17 -44.5t-45 -17.5t-46 19.5t-18 50.5q0 64 70 132z" />
<glyph unicode="&#x2019;" horiz-adv-x="204" d="M98 514q-16 -16 -36 -16q-15 0 -23.5 9.5t-8.5 24.5q0 12 14.5 33.5t14.5 35.5q0 9 -8.5 25t-8.5 28q0 27 17 44.5t45 17.5t46 -19.5t18 -50.5q0 -64 -70 -132z" />
<glyph unicode="&#x201a;" horiz-adv-x="204" d="M98 -87q-16 -16 -36 -16q-15 0 -23.5 9.5t-8.5 24.5q0 12 14.5 33.5t14.5 35.5q0 10 -8.5 25.5t-8.5 27.5q0 27 17 44.5t45 17.5t46 -19.5t18 -50.5q0 -64 -70 -132z" />
<glyph unicode="&#x201c;" horiz-adv-x="364" d="M102 700q16 16 36 16q14 0 23 -10t9 -24q0 -12 -15.5 -33.5t-15.5 -35.5q0 -9 9.5 -25t9.5 -28q0 -27 -17 -44.5t-45 -17.5t-46 19.5t-18 50.5q0 64 70 132zM268 700q16 16 36 16q14 0 23 -10t9 -24q0 -12 -15.5 -33.5t-15.5 -35.5q0 -9 9.5 -25t9.5 -28q0 -27 -17 -44.5 t-45 -17.5t-46 19.5t-18 50.5q0 64 70 132z" />
<glyph unicode="&#x201d;" horiz-adv-x="364" d="M96 514q-16 -16 -36 -16q-14 0 -23 10t-9 24q0 12 15.5 33.5t15.5 35.5q0 9 -9.5 25t-9.5 28q0 27 17 44.5t45 17.5t46 -19.5t18 -50.5q0 -64 -70 -132zM262 514q-16 -16 -36 -16q-14 0 -23 10t-9 24q0 12 15.5 33.5t15.5 35.5q0 9 -9.5 25t-9.5 28q0 27 17 44.5t45 17.5 t46 -19.5t18 -50.5q0 -64 -70 -132z" />
<glyph unicode="&#x201e;" horiz-adv-x="364" d="M96 -86q-16 -16 -36 -16q-14 0 -23 10t-9 24q0 12 15.5 33.5t15.5 35.5q0 9 -9.5 25t-9.5 28q0 27 17 44.5t45 17.5t46 -19.5t18 -50.5q0 -64 -70 -132zM262 -86q-16 -16 -36 -16q-14 0 -23 10t-9 24q0 12 15.5 33.5t15.5 35.5q0 9 -9.5 25t-9.5 28q0 27 17 44.5t45 17.5 t46 -19.5t18 -50.5q0 -64 -70 -132z" />
<glyph unicode="&#x2022;" horiz-adv-x="327" d="M36 252q0 60 37 96.5t93 36.5t92.5 -36.5t36.5 -96.5t-36.5 -96.5t-92.5 -36.5t-93 36.5t-37 96.5z" />
<glyph unicode="&#x2026;" horiz-adv-x="572" d="M29 62q0 30 20 49t49 19q28 0 48.5 -19t20.5 -49t-20.5 -49t-48.5 -19q-29 0 -49 19t-20 49zM217 62q0 30 20 49t49 19q28 0 48.5 -19t20.5 -49t-20.5 -49t-48.5 -19q-29 0 -49 19t-20 49zM405 62q0 30 20 49t49 19q28 0 48.5 -19t20.5 -49t-20.5 -49t-48.5 -19 q-29 0 -49 19t-20 49z" />
<glyph unicode="&#x202f;" horiz-adv-x="180" />
<glyph unicode="&#x2039;" horiz-adv-x="270" d="M24 253q0 23 18 43l131 134q12 14 28 14t26.5 -10t10.5 -24q0 -10 -7 -20l-103 -137l103 -137q7 -11 7 -20q0 -14 -10.5 -24t-26.5 -10t-28 14l-131 134q-18 20 -18 43z" />
<glyph unicode="&#x203a;" horiz-adv-x="270" d="M246 253q0 -23 -18 -43l-131 -134q-12 -14 -28 -14t-26.5 10t-10.5 24q0 10 7 20l103 137l-103 137q-7 10 -7 20q0 14 10.5 24t26.5 10t28 -14l131 -134q18 -20 18 -43z" />
<glyph unicode="&#x205f;" horiz-adv-x="225" />
<glyph unicode="&#x20ac;" d="M246 476v-21h139q18 0 30 -13t12 -32q0 -20 -11.5 -33t-30.5 -13h-139v-53h128q19 0 31 -13t12 -33q0 -19 -12 -32t-31 -13h-128v-20q0 -45 25.5 -71.5t65.5 -26.5q27 0 65 20q22 12 39 12q24 0 39 -17t15 -40q0 -31 -34 -51q-57 -34 -124 -34q-90 0 -152.5 57.5 t-62.5 150.5v20h-49q-18 0 -30 13t-12 32q0 20 11.5 33t30.5 13h49v53h-38q-19 0 -31 13t-12 33q0 19 12 32t31 13h38v21q0 94 63 153t153 59q65 0 126 -36q31 -18 31 -49q0 -24 -14 -40t-39 -16q-20 0 -42 12q-32 17 -62 17q-40 0 -66 -28t-26 -72z" />
<glyph unicode="&#x2122;" horiz-adv-x="509" d="M144 618v-210q0 -13 -10 -22t-24 -9q-15 0 -24.5 9t-9.5 22v210h-44q-13 0 -21 8.5t-8 22.5t8 22.5t21 8.5h156q13 0 21 -8.5t8 -22.5t-8 -22.5t-21 -8.5h-44zM303 550v-142q0 -13 -9 -22t-24 -9t-25 9t-10 22v242q0 14 9.5 22.5t24.5 8.5q21 0 32 -19l55 -86l55 86 q13 19 32 19q15 0 24.5 -8.5t9.5 -21.5v-243q0 -13 -9 -22t-24 -9t-24.5 9t-9.5 22v145l-25 -39q-11 -17 -29 -17t-29 17z" />
</font>
</defs>
</svg>
